<svg width="200" height="200" viewBox="0 0 200 200" fill="none" xmlns="http://www.w3.org/2000/svg">
<rect width="200" height="200" fill="#A2A2A2"/>
<rect width="1512" height="982" transform="translate(-783 -291)" fill="white"/>
<path d="M200 152.961H0V153.061H200V152.961Z" fill="#EBEBEB"/>
<path d="M179.96 159.395H166.712V159.495H179.96V159.395Z" fill="#EBEBEB"/>
<path d="M132.488 160.48H129.011V160.58H132.488V160.48Z" fill="#EBEBEB"/>
<path d="M166.311 155.684H158.634V155.784H166.311V155.684Z" fill="#EBEBEB"/>
<path d="M38.2607 156.355H20.9835V156.455H38.2607V156.355Z" fill="#EBEBEB"/>
<path d="M44.3556 156.355H41.8224V156.455H44.3556V156.355Z" fill="#EBEBEB"/>
<path d="M90.0588 158.043H52.5884V158.143H90.0588V158.043Z" fill="#EBEBEB"/>
<path d="M94.8055 135.12H17.5659C16.3071 135.12 15.2827 134.095 15.2827 132.836V24.2637C15.2827 23.0049 16.3071 21.9805 17.5659 21.9805H94.8055C96.0639 21.9805 97.0883 23.0049 97.0883 24.2637V132.836C97.0883 134.095 96.0639 135.12 94.8055 135.12ZM17.5659 22.0809C16.3619 22.0809 15.3827 23.0601 15.3827 24.2641V132.837C15.3827 134.041 16.3619 135.02 17.5659 135.02H94.8055C96.0091 135.02 96.9883 134.041 96.9883 132.837V24.2637C96.9883 23.0601 96.0091 22.0805 94.8055 22.0805L17.5659 22.0809Z" fill="#EBEBEB"/>
<path d="M181.324 135.12H104.085C102.826 135.12 101.802 134.095 101.802 132.836V24.2637C101.802 23.0049 102.826 21.9805 104.085 21.9805H181.324C182.583 21.9805 183.607 23.0049 183.607 24.2637V132.836C183.608 134.095 182.583 135.12 181.324 135.12ZM104.085 22.0809C102.881 22.0809 101.902 23.0601 101.902 24.2641V132.837C101.902 134.041 102.881 135.02 104.085 135.02H181.324C182.528 135.02 183.507 134.041 183.507 132.837V24.2637C183.507 23.0601 182.528 22.0805 181.324 22.0805L104.085 22.0809Z" fill="#EBEBEB"/>
<path d="M154.8 38.1289H108.595V121.018H154.8V38.1289Z" fill="#FAFAFA"/>
<path d="M138.577 119.018H128.008L137.885 40.1289H148.453L138.577 119.018Z" fill="white"/>
<path d="M118.131 119.018H114.464L124.341 40.1289H128.008L118.131 119.018Z" fill="white"/>
<path d="M154.8 121.02H155.6V38.1307H154.8V121.02Z" fill="#EBEBEB"/>
<path d="M166.22 0H164.377V47.718H166.22V0Z" fill="#F0F0F0"/>
<path d="M165.298 46.7852C161.034 46.7852 157.579 50.2404 157.579 54.5036C157.579 58.7668 161.034 62.222 165.298 62.222C169.561 62.222 173.018 58.7668 173.018 54.5036C173.018 50.2404 169.561 46.7852 165.298 46.7852ZM165.298 60.3692C162.058 60.3692 159.432 57.7432 159.432 54.5036C159.432 51.264 162.058 48.638 165.298 48.638C168.537 48.638 171.166 51.264 171.166 54.5036C171.166 57.7432 168.537 60.3692 165.298 60.3692Z" fill="#E0E0E0"/>
<path d="M139.689 0H137.846V47.718H139.689V0Z" fill="#F0F0F0"/>
<path d="M138.766 46.7852C134.503 46.7852 131.048 50.2404 131.048 54.5036C131.048 58.7668 134.503 62.222 138.766 62.222C143.029 62.222 146.487 58.7668 146.487 54.5036C146.487 50.2404 143.029 46.7852 138.766 46.7852ZM138.766 60.3692C135.526 60.3692 132.9 57.7432 132.9 54.5036C132.9 51.264 135.526 48.638 138.766 48.638C142.006 48.638 144.634 51.264 144.634 54.5036C144.634 57.7432 142.006 60.3692 138.766 60.3692Z" fill="#E0E0E0"/>
<path d="M27.2223 32.5352C25.1603 32.5352 23.4891 34.2068 23.4891 36.2684V152.961H27.2223V32.5352Z" fill="#F5F5F5"/>
<path d="M27.222 152.961H29.222L29.222 32.5349H27.222L27.222 152.961Z" fill="#E6E6E6"/>
<path d="M84.9999 40.1328H28.7332C28.1808 40.1328 27.7332 39.6852 27.7332 39.1328C27.7332 38.5804 28.1808 38.1328 28.7332 38.1328H84.9999V40.1328Z" fill="#F0F0F0"/>
<path d="M84.9999 51.4727H28.7332C28.1808 51.4727 27.7332 51.0251 27.7332 50.4727C27.7332 49.9203 28.1808 49.4727 28.7332 49.4727H84.9999V51.4727Z" fill="#F0F0F0"/>
<path d="M84.9999 62.8086H28.7332C28.1808 62.8086 27.7332 62.361 27.7332 61.8086C27.7332 61.2562 28.1808 60.8086 28.7332 60.8086H84.9999V62.8086Z" fill="#F0F0F0"/>
<path d="M84.9999 74.1523H28.7332C28.1808 74.1523 27.7332 73.7047 27.7332 73.1523C27.7332 72.5999 28.1808 72.1523 28.7332 72.1523H84.9999V74.1523Z" fill="#F0F0F0"/>
<path d="M84.9999 85.4922H28.7332C28.1808 85.4922 27.7332 85.0446 27.7332 84.4922C27.7332 83.9398 28.1808 83.4922 28.7332 83.4922H84.9999V85.4922Z" fill="#F0F0F0"/>
<path d="M84.9999 96.8281H28.7332C28.1808 96.8281 27.7332 96.3805 27.7332 95.8281C27.7332 95.2757 28.1808 94.8281 28.7332 94.8281H84.9999V96.8281Z" fill="#F0F0F0"/>
<path d="M84.9999 108.168H28.7332C28.1808 108.168 27.7332 107.72 27.7332 107.168C27.7332 106.616 28.1808 106.168 28.7332 106.168H84.9999V108.168Z" fill="#F0F0F0"/>
<path d="M84.9999 119.504H28.7332C28.1808 119.504 27.7332 119.056 27.7332 118.504C27.7332 117.952 28.1808 117.504 28.7332 117.504H84.9999V119.504Z" fill="#F0F0F0"/>
<path d="M84.9999 130.844H28.7332C28.1808 130.844 27.7332 130.396 27.7332 129.844C27.7332 129.291 28.1808 128.844 28.7332 128.844H84.9999V130.844Z" fill="#F0F0F0"/>
<path d="M84.9999 142.18H28.7332C28.1808 142.18 27.7332 141.732 27.7332 141.18C27.7332 140.627 28.1808 140.18 28.7332 140.18H84.9999V142.18Z" fill="#F0F0F0"/>
<path d="M86.8667 32.5352C84.8047 32.5352 83.1335 34.2068 83.1335 36.2684V152.961H86.8667V32.5352Z" fill="#F5F5F5"/>
<path d="M86.8664 152.961H88.8664L88.8664 32.5349H86.8664L86.8664 152.961Z" fill="#E6E6E6"/>
<path d="M112.336 129.629C109.012 129.629 106.317 134.041 106.317 139.483C106.317 144.926 109.012 149.338 112.336 149.338H114.614V129.629H112.336Z" fill="#E0E0E0"/>
<path d="M114.614 149.338C117.938 149.338 120.633 144.926 120.633 139.483C120.633 134.041 117.938 129.629 114.614 129.629C111.29 129.629 108.595 134.041 108.595 139.483C108.595 144.926 111.29 149.338 114.614 149.338Z" fill="#E0E0E0"/>
<path d="M116.034 126.004C111.487 126.004 107.801 132.039 107.801 139.484C107.801 146.928 111.487 152.963 116.034 152.963H119.15V126.004H116.034Z" fill="#E6E6E6"/>
<path d="M119.15 152.963C123.697 152.963 127.383 146.928 127.383 139.484C127.383 132.039 123.697 126.004 119.15 126.004C114.603 126.004 110.917 132.039 110.917 139.484C110.917 146.928 114.603 152.963 119.15 152.963Z" fill="#F0F0F0"/>
<path d="M170.171 140.579H120.248C119.641 140.579 119.15 140.087 119.15 139.481C119.15 138.874 119.641 138.383 120.248 138.383H170.171V140.579Z" fill="#E6E6E6"/>
<path d="M167.541 126.008C162.994 126.008 159.308 132.043 159.308 139.487C159.308 146.932 162.994 152.967 167.541 152.967H170.657V126.008H167.541Z" fill="#E0E0E0"/>
<path d="M170.658 152.967C175.205 152.967 178.891 146.932 178.891 139.487C178.891 132.043 175.205 126.008 170.658 126.008C166.11 126.008 162.424 132.043 162.424 139.487C162.424 146.932 166.11 152.967 170.658 152.967Z" fill="#F0F0F0"/>
<path d="M170.795 129.629C167.471 129.629 164.776 134.041 164.776 139.483C164.776 144.926 167.471 149.338 170.795 149.338H173.073V129.629H170.795Z" fill="#E0E0E0"/>
<path d="M173.073 149.338C176.397 149.338 179.092 144.926 179.092 139.483C179.092 134.041 176.397 129.629 173.073 129.629C169.749 129.629 167.054 134.041 167.054 139.483C167.054 144.926 169.749 149.338 173.073 149.338Z" fill="#F0F0F0"/>
<path d="M99.9999 171.023C142.833 171.023 177.556 168.995 177.556 166.494C177.556 163.993 142.833 161.965 99.9999 161.965C57.1672 161.965 22.4443 163.993 22.4443 166.494C22.4443 168.995 57.1672 171.023 99.9999 171.023Z" fill="#F5F5F5"/>
<path d="M66.0056 82.5161C67.2476 82.5737 68.3808 82.9917 69.4672 83.4681L72.7512 84.8505C73.8424 85.3053 74.9332 85.7509 76.0148 86.1673C77.0948 86.5809 78.182 86.9553 79.2056 87.2121C79.4576 87.2725 79.7052 87.3277 79.9388 87.3705L80.7028 87.4833L81.5308 87.5573L82.39 87.6009C83.55 87.6429 84.7428 87.6365 85.94 87.6085C87.1384 87.5805 88.3448 87.5221 89.552 87.4525C90.7572 87.3833 91.9776 87.3153 93.174 87.2205L93.1828 87.2197C93.8584 87.1661 94.45 87.6701 94.5036 88.3461C94.5516 88.9521 94.1504 89.4905 93.58 89.6337C91.168 90.2413 88.7644 90.7573 86.304 91.1909C85.0732 91.4053 83.8328 91.6001 82.5544 91.7457L81.584 91.8417L80.5816 91.9045C80.2296 91.9093 79.8784 91.9177 79.5184 91.9121C79.1448 91.8969 78.788 91.8673 78.4372 91.8321C77.0548 91.6757 75.7784 91.4225 74.522 91.1353C73.2664 90.8497 72.046 90.5081 70.8412 90.1365C69.6388 89.7613 68.4556 89.3485 67.2864 88.9065C66.108 88.4737 64.988 87.9537 63.9964 87.0285C62.942 86.0449 62.8844 84.3929 63.868 83.3381C64.4088 82.7581 65.152 82.4797 65.8868 82.5101L66.0056 82.5161Z" fill="#FFC3BD"/>
<path d="M91.77 87.617L94.132 86.8241C94.6236 86.6589 95.1456 86.6021 95.6612 86.6569L96.9328 86.7925C97.566 86.8601 98.0204 87.4349 97.9396 88.0665L97.7624 89.453C97.692 90.005 97.232 90.4246 96.6756 90.4446L95.0348 90.5033C95.0348 90.5033 92.1052 91.1066 91.5332 89.6022L91.77 87.617Z" fill="#FFC3BD"/>
<path d="M54.6892 80.988C57.588 80.0416 61.0908 80.4732 61.0908 80.4732L67.4064 82.2028C68.7432 82.5688 69.6704 83.8328 69.6952 85.258C69.832 93.0904 68.2716 96.9596 67.2576 111.417C66.7044 111.361 50.376 109.97 50.376 109.97C51.9032 101.924 50.3044 95.9476 50.342 87.5052C50.3628 82.938 52.504 81.7016 54.6892 80.988Z" fill="#263238"/>
<path opacity="0.7" d="M58.4 87.1019C58.914 89.6515 57.7436 91.7267 55.786 91.7371C53.8284 91.7475 51.8252 89.6887 51.3112 87.1391C50.7972 84.5895 51.9676 82.5139 53.9252 82.5039C55.8828 82.4935 57.8864 84.5523 58.4 87.1019Z" fill="#FFC3BD"/>
<path d="M54.8469 82.5336C56.0641 82.8628 57.0925 83.5272 58.0629 84.2384L61.0129 86.324C61.9945 87.0128 62.9769 87.6896 63.9573 88.3368C64.9357 88.9756 65.9349 89.584 66.8817 90.0376C67.7529 90.4636 68.8841 90.8132 70.0281 91.1328C71.1781 91.4504 72.3637 91.732 73.5541 92.0016C74.7457 92.2712 75.9485 92.5204 77.1549 92.7592C78.3593 93 79.5741 93.2468 80.7769 93.4668L80.7829 93.468C81.4497 93.59 81.8909 94.2296 81.7689 94.896C81.6593 95.496 81.1301 95.9136 80.5393 95.902C78.0269 95.8564 75.5397 95.7404 73.0265 95.5456C71.7697 95.4472 70.5113 95.3364 69.2325 95.1768C68.5909 95.0928 67.9473 95.0044 67.2837 94.8844C66.9601 94.8364 66.6053 94.7468 66.2653 94.6772C65.9249 94.6028 65.5405 94.4884 65.2089 94.382C63.8473 93.9392 62.6425 93.4088 61.4537 92.8548C60.2705 92.3 59.1321 91.7 58.0205 91.0688C56.9089 90.4372 55.8273 89.7704 54.7653 89.078C53.6917 88.394 52.6929 87.6388 51.9125 86.5064C51.0945 85.3192 51.3937 83.6932 52.5809 82.8752C53.2345 82.4248 54.0209 82.3132 54.7325 82.5016L54.8469 82.5336Z" fill="#FFC3BD"/>
<path d="M79.3204 93.3668L81.6436 92.4664C82.1272 92.2788 82.646 92.198 83.1636 92.2292L84.44 92.306C85.0756 92.3444 85.556 92.8976 85.504 93.5324L85.3904 94.9256C85.3452 95.4804 84.9052 95.9208 84.3504 95.966L82.714 96.1C82.714 96.1 79.8152 96.8372 79.1748 95.3604L79.3204 93.3668Z" fill="#FFC3BD"/>
<path d="M57.5793 71.5837C55.2893 71.7389 56.1465 76.1841 58.4137 76.7649C60.6809 77.3457 60.7329 71.3697 57.5793 71.5837Z" fill="#263238"/>
<path d="M67.4228 66.7874C65.4376 65.0054 62.4284 69.3222 63.7824 71.6818C65.136 74.0418 70.1572 69.2418 67.4228 66.7874Z" fill="#263238"/>
<path d="M58.0505 72.707C57.9745 75.0334 57.7393 78.0698 56.8137 80.7634C57.0301 82.3422 59.8861 83.167 62.9961 84.2614C64.7705 83.2522 65.2169 82.4402 64.5413 81.3998C61.9349 80.6894 62.8305 78.1706 63.4177 76.351L58.0505 72.707Z" fill="#FFC3BD"/>
<path opacity="0.2" d="M63.1831 76.1948L63.4184 76.3536C63.1848 77.068 62.9076 77.8912 62.8168 78.6732C61.6148 78.5588 60.4068 78.0824 59.832 77.2588C59.3524 76.5708 58.9903 75.8468 58.9203 75.4336L63.1831 76.1948Z" fill="black"/>
<path d="M57.5112 69.8253C57.6856 73.0329 57.6248 74.9206 59.2352 76.5642C61.658 79.0361 65.6332 77.5598 66.4224 74.3562C67.1328 71.4726 66.728 66.7118 63.5928 65.441C60.504 64.1886 57.3368 66.6177 57.5112 69.8253Z" fill="#FFC3BD"/>
<path d="M56.8132 72.5368C56.8132 72.5368 60.2068 73.9076 59.4736 72.0944C59.4736 72.0944 61.0616 69.8992 59.6736 68.47C61.718 68.9812 63.8736 68.0256 63.918 67.4256C64.9624 68.7644 67.4456 68.6368 67.318 66.9144C68.0336 66.32 68.8276 64.454 66.8456 63.5032C65.4904 62.8532 63.8956 63.9364 63.8956 63.9364C63.8956 63.9364 62.0512 61.7144 59.6288 62.3364C57.2064 62.9588 57.162 64.7808 57.162 64.7808C57.162 64.7808 54.362 64.5364 53.6064 66.3588C52.8508 68.1808 54.4064 69.4976 54.4064 69.4976C54.4064 69.4976 53.3796 72.6904 56.8132 72.5368Z" fill="#263238"/>
<path d="M55.968 72.9674C56.3652 73.7342 57.082 74.243 57.7648 74.4434C58.792 74.745 59.3288 73.8294 59.0628 72.8526C58.8232 71.9734 58 70.7574 56.9596 70.8842C55.9348 71.0094 55.514 72.091 55.968 72.9674Z" fill="#FFC3BD"/>
<path d="M62.7776 70.5166C62.7756 70.7778 62.9128 70.9894 63.0836 70.989C63.2544 70.9886 63.3948 70.7766 63.3964 70.5154C63.3984 70.2542 63.2612 70.0426 63.09 70.043C62.9196 70.0434 62.7796 70.2554 62.7776 70.5166Z" fill="#263238"/>
<path d="M63.4176 74.1845C63.4156 74.4457 63.5528 74.6573 63.724 74.6569C63.8948 74.6565 64.0352 74.4445 64.0368 74.1833C64.0388 73.9221 63.9016 73.7105 63.7304 73.7109C63.5596 73.7113 63.4196 73.9233 63.4176 74.1845Z" fill="#263238"/>
<path d="M65.8068 70.7392C65.8048 71.0004 65.942 71.212 66.1132 71.2116C66.2844 71.2112 66.4244 70.9992 66.426 70.738C66.428 70.4768 66.2908 70.2652 66.1196 70.2656C65.9488 70.266 65.8088 70.478 65.8068 70.7392Z" fill="#263238"/>
<path d="M64.8828 70.8398C64.8828 70.8398 65.4668 72.3454 66.1164 73.0714C65.6508 73.5038 64.8652 73.3078 64.8652 73.3078L64.8828 70.8398Z" fill="#ED847E"/>
<path d="M61.9256 69.4896C61.9012 69.4828 61.878 69.4696 61.8588 69.4504C61.7992 69.3904 61.8004 69.2936 61.8608 69.2336C62.468 68.6348 63.1632 68.7736 63.1924 68.78C63.2756 68.7976 63.3276 68.8788 63.3092 68.9616C63.2908 69.044 63.2092 69.0968 63.1268 69.08C63.104 69.0752 62.5608 68.9728 62.0764 69.4508C62.0352 69.4908 61.9772 69.504 61.9256 69.4896Z" fill="#263238"/>
<path d="M66.866 69.7674C66.8164 69.7706 66.7664 69.7498 66.7344 69.7074C66.3284 69.1682 65.7764 69.197 65.7532 69.1982C65.6688 69.2034 65.5964 69.1398 65.5912 69.0554C65.586 68.971 65.6496 68.8982 65.734 68.8918C65.7644 68.8902 66.4716 68.8454 66.98 69.521C67.0308 69.5886 67.0168 69.6846 66.9492 69.7362C66.9244 69.7554 66.8952 69.7658 66.866 69.7674Z" fill="#263238"/>
<path d="M67.4512 110.082L50.408 108.68C50.3036 108.672 50.2116 108.748 50.2004 108.852L50.0832 109.967C50.072 110.073 50.1496 110.168 50.256 110.179L67.1824 111.851C67.2832 111.861 67.3744 111.791 67.3912 111.692L67.6252 110.307C67.6444 110.195 67.5636 110.092 67.4512 110.082Z" fill="#5735DE"/>
<path d="M78.7256 129.04C68.2728 126.753 61.1693 123.714 61.1693 123.714L66.7224 112.25C66.7224 112.25 90.0668 119.919 87.6612 127.254C83.0436 141.333 79.1324 163.148 79.1324 163.148C79.1324 163.148 77.6004 163.148 75.3968 163.148C76.8816 146.81 73.9176 136.002 78.7256 129.04Z" fill="#FFC3BD"/>
<path d="M79.14 162.754L75.122 162.81C74.9896 162.812 74.886 162.906 74.872 163.035L74.564 165.925C74.532 166.225 74.7912 166.504 75.0956 166.494C76.3676 166.453 78.6856 166.349 80.2872 166.324C82.16 166.294 81.9776 166.372 84.174 166.337C85.502 166.316 85.716 164.966 85.146 164.853C82.5516 164.338 82.29 164.311 79.9476 162.995C79.694 162.851 79.4192 162.75 79.14 162.754Z" fill="#263238"/>
<path d="M79.7271 163.044C79.6999 163.035 79.6799 163.012 79.6751 162.983C79.6699 162.951 79.6859 162.919 79.7147 162.904C79.8607 162.825 81.1523 162.144 81.5495 162.358C81.6263 162.399 81.6711 162.469 81.6795 162.56C81.6935 162.713 81.6471 162.839 81.5419 162.936C81.1919 163.256 80.2611 163.143 79.7375 163.047C79.7339 163.046 79.7303 163.045 79.7271 163.044ZM81.4487 162.481C81.2031 162.4 80.5011 162.68 79.9915 162.934C80.7087 163.041 81.2415 163.002 81.4383 162.822C81.5075 162.759 81.5363 162.678 81.5267 162.574C81.5231 162.534 81.5079 162.51 81.4771 162.493C81.4683 162.488 81.4591 162.484 81.4487 162.481Z" fill="#407BFF"/>
<path d="M79.727 163.046C79.7202 163.044 79.7134 163.041 79.7074 163.036C79.685 163.021 79.6726 162.994 79.6746 162.967C79.6774 162.93 79.7507 162.056 80.1571 161.711C80.2811 161.606 80.4235 161.559 80.5803 161.573C80.7919 161.591 80.8543 161.697 80.8699 161.783C80.9351 162.148 80.1719 162.861 79.7839 163.043C79.7655 163.051 79.7454 163.052 79.727 163.046ZM80.6459 161.74C80.6259 161.734 80.6002 161.729 80.567 161.726C80.4506 161.716 80.349 161.749 80.2558 161.828C79.9886 162.055 79.8818 162.578 79.8446 162.834C80.2398 162.588 80.7575 162.029 80.7183 161.809C80.7163 161.797 80.7099 161.762 80.6459 161.74Z" fill="#407BFF"/>
<path d="M67.3688 111.18C67.3688 111.18 74.2184 114.162 78.0508 116.215C78.3308 116.365 78.438 116.693 78.3044 116.971C75.8584 122.061 75.3188 126.789 75.2012 128.467C75.1768 128.816 74.8436 129.068 74.482 129.007C70.6708 128.363 52.3552 124.508 54.252 110.16C58.3272 110.349 67.3688 111.18 67.3688 111.18Z" fill="#5735DE"/>
<path d="M60.1536 110.561C60.1536 110.561 54.56 109.755 50.4848 109.566C44.616 127.91 58.7496 128.624 62.0336 128.964C62.3908 129.001 62.7444 128.866 62.9644 128.596C65.2908 125.744 67.1088 121.822 66.3856 116.94C66.3424 116.649 66.1556 116.398 65.8952 116.241C62.426 114.144 60.1536 110.561 60.1536 110.561Z" fill="#5735DE"/>
<path d="M62.8029 116.484C59.4513 116.982 57.2665 126.352 59.2813 127.666C61.1689 128.482 63.2133 129.016 64.4621 129.038C59.6541 136 62.6185 146.808 61.1333 163.146C63.3373 163.146 64.8693 163.146 64.8693 163.146C64.8693 163.146 68.7805 141.331 73.3981 127.252C74.6753 123.358 68.6949 119.369 62.8029 116.484Z" fill="#FFC3BD"/>
<path d="M64.8771 162.75L60.8591 162.806C60.7267 162.808 60.6231 162.902 60.6091 163.031L60.3011 165.921C60.2691 166.221 60.5283 166.501 60.8327 166.491C62.1047 166.449 64.4227 166.345 66.0243 166.32C67.8971 166.291 67.7147 166.368 69.9115 166.333C71.2395 166.313 71.4535 164.962 70.8835 164.849C68.2891 164.334 68.0275 164.307 65.6851 162.991C65.4307 162.847 65.1563 162.746 64.8771 162.75Z" fill="#263238"/>
<path d="M65.464 163.04C65.4368 163.031 65.4168 163.008 65.412 162.979C65.4068 162.947 65.4228 162.915 65.4516 162.9C65.5976 162.821 66.8892 162.14 67.2864 162.354C67.3632 162.395 67.408 162.465 67.4164 162.556C67.4304 162.709 67.384 162.835 67.2788 162.932C66.9288 163.252 65.998 163.139 65.4744 163.043C65.4708 163.042 65.4672 163.041 65.464 163.04ZM67.1856 162.477C66.94 162.396 66.238 162.676 65.7284 162.93C66.4456 163.037 66.9784 162.998 67.1752 162.818C67.2444 162.755 67.2732 162.674 67.2636 162.57C67.26 162.53 67.2448 162.506 67.214 162.489C67.2052 162.484 67.196 162.48 67.1856 162.477Z" fill="#407BFF"/>
<path d="M65.464 163.042C65.4572 163.04 65.4504 163.037 65.4444 163.032C65.422 163.017 65.4096 162.99 65.4116 162.963C65.4144 162.926 65.4876 162.052 65.894 161.707C66.018 161.602 66.1604 161.555 66.3172 161.569C66.5284 161.587 66.5912 161.693 66.6064 161.779C66.6716 162.144 65.9084 162.857 65.5204 163.039C65.5028 163.047 65.4824 163.048 65.464 163.042ZM66.3832 161.737C66.3632 161.73 66.3376 161.725 66.3044 161.722C66.188 161.712 66.0864 161.745 65.9932 161.824C65.726 162.051 65.6192 162.575 65.582 162.83C65.9772 162.584 66.4948 162.025 66.4556 161.805C66.4532 161.793 66.4468 161.758 66.3832 161.737Z" fill="#407BFF"/>
<path d="M129.658 44.3168C129.443 42.4708 129.192 38.876 130.732 38.1356C134.889 37.5828 139.355 41.802 139.892 42.8408C140.43 43.8796 140.202 48.4776 138.268 49.3372C136.333 50.1972 129.658 44.3168 129.658 44.3168Z" fill="#263238"/>
<path d="M129.197 58.2228C129.416 58.972 129.461 59.6396 129.462 60.3324C129.454 61.0168 129.37 61.6916 129.243 62.3608C129.014 63.7024 128.737 65.0404 128.398 66.3776C128.053 67.7148 127.658 69.0508 127.158 70.3928C126.657 71.7364 126.094 73.0852 125.265 74.496L124.926 75.0312L124.539 75.5764C124.291 75.8772 124.046 76.1696 123.8 76.452L123.065 77.2428L122.328 77.9872C121.344 78.9544 120.347 79.8608 119.342 80.7476C117.32 82.5096 115.271 84.17 113.15 85.7908C112.494 86.2928 111.554 86.1676 111.052 85.5108C110.61 84.9332 110.655 84.1364 111.119 83.6116L111.133 83.596C112.845 81.6568 114.552 79.674 116.172 77.6808C116.983 76.6856 117.774 75.682 118.507 74.6768L119.039 73.9248L119.526 73.1808L119.94 72.4692L120.074 72.184L120.21 71.8608C120.571 70.94 120.863 69.8032 121.09 68.6372C121.318 67.4668 121.51 66.2516 121.686 65.026C121.862 63.7988 122.026 62.558 122.181 61.3124C122.318 60.0732 122.541 58.8072 123.204 57.6656L123.297 57.5044C124.194 55.9604 126.172 55.4356 127.716 56.3324C128.462 56.764 128.972 57.4564 129.197 58.2228Z" fill="#FFB573"/>
<path d="M112.108 83.1641L109.627 84.1073C109.111 84.3037 108.643 84.6093 108.256 85.0029L107.3 85.9737C106.824 86.4573 106.839 87.2373 107.332 87.7025L108.415 88.7237C108.846 89.1305 109.508 89.1653 109.979 88.8057L111.369 87.7457C111.369 87.7457 114.188 86.2633 113.643 84.6381L112.108 83.1641Z" fill="#FFB573"/>
<path d="M143.84 55.6023L134.342 53.9727L126.267 55.2959C124.571 55.5739 123.334 57.0011 123.216 58.7163C122.6 67.6583 124.19 71.9759 124.439 86.1091C125.032 86.1107 142.496 86.4067 142.496 86.4067C142.068 78.7339 146.021 69.1187 146.856 59.5219C147.021 57.6287 145.712 55.9235 143.84 55.6023Z" fill="#5735DE"/>
<path d="M138.525 46.0898C138.346 48.5618 138.256 51.8042 138.936 54.7598C138.531 56.4078 135.593 58.1514 132.177 58.9634C129.502 57.6258 129.85 55.5982 130.681 54.5714C133.52 54.1098 132.853 51.3422 132.434 49.3498L138.525 46.0898Z" fill="#FFB573"/>
<path d="M131.239 63.9271C131.227 63.9271 131.216 63.9259 131.204 63.9235C131.16 63.9143 131.122 63.8859 131.099 63.8467C127.643 57.8831 130.198 54.6467 130.308 54.5119C130.364 54.4435 130.466 54.4331 130.535 54.4895C130.604 54.5459 130.614 54.6475 130.558 54.7167C130.454 54.8431 128.076 57.8583 131.29 63.5319C136.246 59.9855 138.672 56.0747 138.87 54.7539C138.884 54.6663 138.964 54.6075 139.054 54.6187C139.142 54.6319 139.202 54.7139 139.189 54.8023C138.982 56.1831 136.464 60.2687 131.332 63.8983C131.304 63.9171 131.272 63.9271 131.239 63.9271Z" fill="#263238"/>
<path d="M131.774 62.9102H130.936C130.488 62.9102 130.126 63.273 130.126 63.721V66.1526H131.774V62.9102Z" fill="#263238"/>
<path d="M132.005 64.5314C131.557 64.5314 131.194 64.1686 131.194 63.721V62.9102H132.005C132.452 62.9102 132.815 63.273 132.815 63.721C132.816 64.1686 132.452 64.5314 132.005 64.5314Z" fill="#263238"/>
<path opacity="0.2" d="M132.7 49.2101L132.433 49.3521C132.601 50.1345 132.803 51.0373 132.811 51.8757C134.097 51.8885 135.43 51.5189 136.131 50.7105C136.716 50.0353 137.18 49.3089 137.3 48.8789L132.7 49.2101Z" fill="black"/>
<path opacity="0.2" d="M144.983 58.8594C144.265 59.169 143.04 61.1422 143.156 63.2402C143.285 65.6518 144.071 67.6898 145.224 69.2118C145.8 66.6194 146.333 63.9798 146.664 61.327L144.983 58.8594Z" fill="black"/>
<path d="M139.418 43.0961C138.875 46.4737 138.729 48.4797 136.84 50.0405C133.998 52.3885 129.953 50.3813 129.475 46.9005C129.044 43.7673 130.004 38.7705 133.466 37.7745C136.876 36.7929 139.96 39.7185 139.418 43.0961Z" fill="#FFB573"/>
<path d="M139.03 45.7665C137.629 44.6021 136.449 42.0013 137.435 39.8873C134.873 40.4069 130.609 40.6665 129.378 38.2429C128.523 36.5589 129.054 34.7201 131.002 34.4453C132.017 36.0577 134.154 35.6813 135.964 35.3945C137.773 35.1081 142.448 34.4437 141.994 37.9641C144.167 38.2073 145.302 43.0437 139.03 45.7665Z" fill="#263238"/>
<path d="M140.701 46.5966C140.194 47.3642 139.379 47.8234 138.633 47.9594C137.512 48.1642 137.045 47.1346 137.436 46.1298C137.788 45.2254 138.795 44.0294 139.883 44.2798C140.954 44.527 141.28 45.719 140.701 46.5966Z" fill="#FFB573"/>
<path d="M134.772 120.362C134.642 103.007 138.226 86.3414 138.226 86.3414L124.798 86.1094C124.798 86.1094 125.478 111.254 126.879 121.672C128.762 135.681 128.594 162.927 128.594 162.927H132.573C132.572 162.927 137.168 136.374 134.772 120.362Z" fill="#FFB573"/>
<path d="M128.585 162.504L132.864 162.563C133.005 162.566 133.116 162.665 133.13 162.804L133.458 165.881C133.492 166.2 133.216 166.498 132.892 166.487C131.538 166.443 129.069 166.332 127.363 166.306C125.369 166.274 125.563 166.356 123.224 166.32C121.81 166.297 121.582 164.859 122.189 164.739C124.952 164.191 125.23 164.162 127.725 162.76C127.996 162.607 128.288 162.499 128.585 162.504Z" fill="#263238"/>
<path d="M127.96 162.814C127.989 162.804 128.011 162.78 128.016 162.749C128.021 162.715 128.004 162.681 127.974 162.664C127.818 162.581 126.443 161.856 126.02 162.083C125.938 162.127 125.89 162.201 125.882 162.298C125.866 162.461 125.916 162.595 126.028 162.698C126.401 163.039 127.392 162.919 127.95 162.816C127.953 162.816 127.957 162.815 127.96 162.814ZM126.127 162.214C126.388 162.128 127.136 162.427 127.679 162.696C126.915 162.811 126.348 162.769 126.138 162.578C126.065 162.51 126.034 162.424 126.044 162.313C126.048 162.27 126.064 162.245 126.097 162.227C126.106 162.222 126.116 162.218 126.127 162.214Z" fill="#407BFF"/>
<path d="M127.96 162.813C127.967 162.811 127.974 162.807 127.981 162.803C128.005 162.787 128.018 162.759 128.016 162.729C128.013 162.69 127.935 161.759 127.502 161.392C127.37 161.28 127.219 161.23 127.051 161.245C126.826 161.264 126.759 161.377 126.743 161.468C126.673 161.857 127.486 162.617 127.9 162.81C127.919 162.819 127.941 162.82 127.96 162.813ZM126.981 161.423C127.003 161.416 127.03 161.411 127.065 161.407C127.189 161.397 127.297 161.433 127.397 161.517C127.681 161.758 127.795 162.316 127.835 162.588C127.414 162.326 126.863 161.731 126.904 161.497C126.907 161.483 126.913 161.445 126.981 161.423Z" fill="#407BFF"/>
<path opacity="0.2" d="M134.494 100.902C133.498 102.156 133.467 105.416 135.168 108.909C135.28 107.344 135.413 105.818 135.555 104.347L134.494 100.902Z" fill="black"/>
<path d="M134.262 43.4947C134.235 43.7715 134.066 43.9803 133.885 43.9607C133.704 43.9411 133.579 43.7011 133.606 43.4243C133.634 43.1475 133.802 42.9387 133.984 42.9583C134.164 42.9779 134.289 43.2179 134.262 43.4947Z" fill="#263238"/>
<path d="M130.434 43.1353C130.407 43.4121 130.238 43.6209 130.057 43.6013C129.876 43.5817 129.752 43.3417 129.779 43.0649C129.806 42.7881 129.975 42.5793 130.156 42.5989C130.337 42.6185 130.462 42.8585 130.434 43.1353Z" fill="#263238"/>
<path d="M132.016 43.3984C132.016 43.3984 131.23 44.928 130.461 45.624C130.906 46.1336 131.759 46.014 131.759 46.014L132.016 43.3984Z" fill="#FF5652"/>
<path d="M132.854 46.8805C133.922 46.8517 134.482 46.1729 134.508 46.1409C134.536 46.1061 134.53 46.0545 134.495 46.0261C134.46 45.9977 134.409 46.0029 134.38 46.0377C134.374 46.0457 133.72 46.8333 132.508 46.7033C132.463 46.6989 132.423 46.7309 132.418 46.7757C132.414 46.8205 132.447 46.8609 132.492 46.8657C132.618 46.8793 132.739 46.8837 132.854 46.8805Z" fill="#263238"/>
<path d="M134.997 41.7211C135.024 41.7203 135.051 41.7127 135.076 41.6979C135.153 41.6515 135.177 41.5511 135.13 41.4735C134.658 40.6979 133.904 40.6615 133.872 40.6603C133.781 40.6571 133.706 40.7275 133.704 40.8179C133.701 40.9079 133.772 40.9835 133.862 40.9871C133.886 40.9883 134.474 41.0227 134.851 41.6419C134.883 41.6943 134.94 41.7227 134.997 41.7211Z" fill="#263238"/>
<path d="M129.628 42.1006C129.681 42.105 129.734 42.0842 129.77 42.0394C130.214 41.4746 130.801 41.5174 130.826 41.5198C130.915 41.5274 130.994 41.4614 131.001 41.3714C131.008 41.2818 130.942 41.2026 130.853 41.1938C130.82 41.1914 130.068 41.1282 129.512 41.8354C129.456 41.9062 129.469 42.009 129.54 42.065C129.567 42.0866 129.597 42.0982 129.628 42.1006Z" fill="#263238"/>
<path d="M147.235 119.924C144.843 104.414 144.326 89.8682 142.03 86.4038L130.641 86.207C130.641 86.207 137.372 110.729 139.97 121.061C142.669 131.804 149.297 162.884 149.297 162.884L152.929 162.963C152.929 162.963 152.473 132.072 147.235 119.924Z" fill="#FFB573"/>
<path d="M148.95 162.504L153.12 162.563C153.261 162.566 153.372 162.665 153.386 162.804L153.714 165.881C153.748 166.2 153.472 166.498 153.148 166.487C151.793 166.443 150.959 166.333 149.254 166.306C147.259 166.275 148.18 166.356 145.84 166.32C144.426 166.297 144.109 165.018 144.704 164.851C146.59 164.323 147.225 163.575 148.089 162.76C148.316 162.547 148.653 162.499 148.95 162.504Z" fill="#263238"/>
<path d="M149.216 162.77C149.246 162.771 149.275 162.755 149.29 162.728C149.307 162.697 149.303 162.66 149.28 162.634C149.163 162.502 148.12 161.349 147.644 161.417C147.553 161.43 147.482 161.484 147.44 161.572C147.37 161.719 147.37 161.863 147.441 161.998C147.674 162.446 148.646 162.673 149.205 162.769C149.208 162.769 149.212 162.769 149.216 162.77ZM147.7 161.577C147.975 161.586 148.574 162.123 148.992 162.563C148.235 162.408 147.717 162.174 147.586 161.922C147.54 161.834 147.541 161.742 147.588 161.641C147.607 161.603 147.63 161.584 147.668 161.579C147.678 161.577 147.688 161.577 147.7 161.577Z" fill="#407BFF"/>
<path d="M149.216 162.771C149.224 162.771 149.232 162.77 149.239 162.768C149.267 162.761 149.29 162.739 149.297 162.711C149.308 162.673 149.554 161.772 149.274 161.278C149.188 161.128 149.063 161.029 148.901 160.985C148.683 160.926 148.582 161.009 148.535 161.089C148.336 161.43 148.838 162.422 149.16 162.746C149.176 162.762 149.195 162.77 149.216 162.771ZM148.774 161.129C148.797 161.13 148.824 161.134 148.858 161.143C148.978 161.175 149.068 161.246 149.132 161.359C149.316 161.683 149.232 162.246 149.176 162.515C148.87 162.125 148.557 161.376 148.676 161.171C148.684 161.159 148.703 161.126 148.774 161.129Z" fill="#407BFF"/>
<path d="M130.016 85.8789C130.016 85.8789 132.936 100.025 133.248 104.807C139.606 104.581 145.546 103.088 145.546 103.088C145.546 103.088 146.84 93.1861 142.498 86.2065C138.152 85.9625 130.016 85.8789 130.016 85.8789Z" fill="#263238"/>
<path d="M143.627 103.671C143.626 103.671 143.624 103.671 143.623 103.671C143.504 103.669 143.41 103.571 143.412 103.452C143.55 95.9162 140.572 86.7526 140.542 86.6606C140.505 86.5482 140.566 86.4267 140.679 86.3895C140.792 86.3531 140.914 86.4138 140.95 86.5262C140.98 86.6186 143.981 95.8499 143.842 103.459C143.84 103.577 143.744 103.671 143.627 103.671Z" fill="white"/>
<path d="M142.262 103.911C142.261 103.911 142.26 103.911 142.258 103.911C142.139 103.909 142.045 103.811 142.047 103.693C142.185 96.157 139.13 86.7546 139.099 86.6606C139.062 86.5482 139.123 86.4266 139.236 86.3894C139.35 86.353 139.47 86.4138 139.507 86.5266C139.538 86.6214 142.616 96.0906 142.477 103.701C142.475 103.818 142.379 103.911 142.262 103.911Z" fill="white"/>
<path d="M124.4 84.6251L142.606 85.0415C142.717 85.0439 142.806 85.1351 142.806 85.2467V86.4399C142.806 86.5539 142.713 86.6459 142.6 86.6451L124.487 86.5283C124.379 86.5275 124.29 86.4435 124.284 86.3359L124.19 84.8431C124.182 84.7231 124.279 84.6223 124.4 84.6251Z" fill="#263238"/>
<path d="M124.355 85.8789C124.355 85.8789 124.797 99.0033 124.797 103.41C130.744 104.557 137.934 103.848 137.934 103.848C137.934 103.848 142.453 93.1857 138.366 86.2065C134.028 85.9625 124.355 85.8789 124.355 85.8789Z" fill="#263238"/>
<path d="M140.188 74.0731L134.313 83.0007C134.188 83.1911 134.241 83.4495 134.432 83.5751L146.161 91.2939C146.352 91.4191 146.61 91.3659 146.735 91.1755L152.61 82.2479C152.735 82.0575 152.682 81.7991 152.492 81.6735L140.762 73.9547C140.572 73.8291 140.313 73.8827 140.188 74.0731Z" fill="#407BFF"/>
<path d="M140.323 73.8659L134.448 82.7935C134.323 82.9839 134.376 83.2423 134.566 83.3679L146.296 91.0867C146.486 91.2119 146.745 91.1587 146.87 90.9683L152.745 82.0407C152.87 81.8503 152.817 81.5919 152.627 81.4663L140.897 73.7475C140.707 73.6223 140.448 73.6755 140.323 73.8659Z" fill="#407BFF"/>
<path opacity="0.7" d="M140.323 73.8659L134.448 82.7935C134.323 82.9839 134.376 83.2423 134.566 83.3679L146.296 91.0867C146.486 91.2119 146.745 91.1587 146.87 90.9683L152.745 82.0407C152.87 81.8503 152.817 81.5919 152.627 81.4663L140.897 73.7475C140.707 73.6223 140.448 73.6755 140.323 73.8659Z" fill="white"/>
<path opacity="0.2" d="M152.033 81.7431L146.415 90.5075L135.054 83.0319L140.777 74.3359L152.033 81.7431Z" fill="black"/>
<path d="M152.09 81.4072C150.159 84.3404 148.229 87.2736 146.299 90.2072C141.72 87.494 139.322 85.9164 135.019 82.7844C136.95 79.8512 138.879 76.9176 140.81 73.9844C145.113 77.1164 147.511 78.694 152.09 81.4072Z" fill="white"/>
<path opacity="0.4" d="M137.321 79.8703L137.214 80.0367C137.095 80.2207 136.855 80.2647 136.679 80.1347L136.387 79.9191C136.369 79.9055 136.365 79.8803 136.377 79.8615L136.679 79.4019C136.693 79.3815 136.721 79.3767 136.74 79.3911L137.311 79.8135C137.329 79.8267 137.333 79.8515 137.321 79.8703Z" fill="black"/>
<path d="M137.801 76.503L135.979 79.2714C135.866 79.443 135.921 79.6658 136.101 79.7666L136.747 80.1274C136.927 80.2278 137.167 80.1694 137.28 79.9978L139.102 77.229C139.215 77.0574 139.16 76.8346 138.98 76.7342L138.334 76.3734C138.154 76.273 137.914 76.3314 137.801 76.503Z" fill="#263238"/>
<path d="M144.739 83.3242L142.463 84.6882C141.989 84.9722 141.582 85.355 141.27 85.811L140.5 86.9342C140.116 87.4938 140.268 88.259 140.835 88.6306L142.08 89.4458C142.576 89.7706 143.234 89.6882 143.635 89.2518L144.817 87.9638C144.817 87.9638 147.332 86.009 146.509 84.5054L144.739 83.3242Z" fill="#FFB573"/>
<path d="M145.788 56.6245C146.452 57.0121 146.923 57.4517 147.38 57.9449C147.825 58.4365 148.201 58.9769 148.546 59.5389C149.254 60.6513 149.923 61.7937 150.536 62.9857C151.15 64.1769 151.714 65.4145 152.199 66.7269C152.678 68.0505 153.122 69.4113 153.352 71.0353C153.381 71.2353 153.405 71.4425 153.42 71.6625L153.444 71.9849C153.45 72.0969 153.449 72.2405 153.45 72.3665C153.456 72.6349 153.436 72.8721 153.411 73.1049C153.393 73.3481 153.351 73.5553 153.314 73.7733C153.154 74.6237 152.912 75.3489 152.645 76.0333C152.108 77.3961 151.459 78.5829 150.781 79.7337C149.394 82.0157 147.88 84.0709 146.201 86.0877C145.672 86.7225 144.729 86.8089 144.094 86.2801C143.535 85.8149 143.402 85.0273 143.739 84.4125L143.758 84.3769C144.332 83.3297 144.892 82.2093 145.41 81.1121C145.936 80.0109 146.418 78.8977 146.843 77.7901C147.264 76.6881 147.637 75.5745 147.846 74.5405C147.95 74.0281 148.015 73.5313 148.007 73.1361C148.001 73.0421 148.006 72.9385 147.988 72.8677C147.978 72.7873 147.968 72.7109 147.947 72.6665L147.883 72.4353C147.861 72.3433 147.83 72.2421 147.793 72.1357C147.528 71.2961 147.036 70.3085 146.483 69.3501C145.916 68.3845 145.291 67.4097 144.638 66.4361C143.984 65.4625 143.308 64.4865 142.62 63.5141C142.265 63.0349 141.93 62.5425 141.648 62.0109C141.379 61.4813 141.112 60.9057 141.018 60.2953L140.959 59.9149C140.685 58.1485 141.896 56.4953 143.662 56.2217C144.425 56.1041 145.169 56.2641 145.788 56.6245Z" fill="#FFB573"/>
</svg>
