<svg width="200" height="200" viewBox="0 0 200 200" fill="none" xmlns="http://www.w3.org/2000/svg">
<rect width="200" height="200" fill="#A2A2A2"/>
<rect width="1512" height="982" transform="translate(-529 -291)" fill="white"/>
<path d="M57.9708 22H56.1276V69.718H57.9708V22Z" fill="#F0F0F0"/>
<path d="M57.0497 68.7852C52.7865 68.7852 49.3313 72.2404 49.3313 76.5036C49.3313 80.7668 52.7865 84.222 57.0497 84.222C61.3129 84.222 64.7705 80.7668 64.7705 76.5036C64.7705 72.2404 61.3129 68.7852 57.0497 68.7852ZM57.0497 82.3692C53.8101 82.3692 51.1841 79.7432 51.1841 76.5036C51.1841 73.264 53.8101 70.638 57.0497 70.638C60.2893 70.638 62.9177 73.264 62.9177 76.5036C62.9177 79.7432 60.2893 82.3692 57.0497 82.3692Z" fill="#E0E0E0"/>
<path d="M31.4377 22H29.5945V69.718H31.4377V22Z" fill="#F0F0F0"/>
<path d="M30.5138 68.7852C26.2506 68.7852 22.7954 72.2404 22.7954 76.5036C22.7954 80.7668 26.2506 84.222 30.5138 84.222C34.777 84.222 38.2346 80.7668 38.2346 76.5036C38.2346 72.2404 34.777 68.7852 30.5138 68.7852ZM30.5138 82.3692C27.2742 82.3692 24.6482 79.7432 24.6482 76.5036C24.6482 73.264 27.2742 70.638 30.5138 70.638C33.7534 70.638 36.3818 73.264 36.3818 76.5036C36.3822 79.7432 33.7538 82.3692 30.5138 82.3692Z" fill="#E0E0E0"/>
<path d="M179.961 159.406H166.712V159.506H179.961V159.406Z" fill="#EBEBEB"/>
<path d="M132.488 160.488H129.011V160.588H132.488V160.488Z" fill="#EBEBEB"/>
<path d="M166.31 155.688H158.633V155.788H166.31V155.688Z" fill="#EBEBEB"/>
<path d="M38.2606 156.363H20.9834V156.463H38.2606V156.363Z" fill="#EBEBEB"/>
<path d="M44.3556 156.363H41.8224V156.463H44.3556V156.363Z" fill="#EBEBEB"/>
<path d="M90.0576 158.051H52.5872V158.151H90.0576V158.051Z" fill="#EBEBEB"/>
<path d="M94.8053 135.127H17.5657C16.3069 135.127 15.2825 134.103 15.2825 132.844V24.2715C15.2825 23.0127 16.3069 21.9883 17.5657 21.9883H94.8053C96.0637 21.9883 97.0881 23.0127 97.0881 24.2715V132.844C97.0881 134.103 96.0637 135.127 94.8053 135.127ZM17.5657 22.0887C16.3617 22.0887 15.3825 23.0679 15.3825 24.2719V132.845C15.3825 134.049 16.3617 135.028 17.5657 135.028H94.8053C96.0089 135.028 96.9881 134.049 96.9881 132.845V24.2715C96.9881 23.0679 96.0089 22.0883 94.8053 22.0883L17.5657 22.0887Z" fill="#EBEBEB"/>
<path d="M181.325 135.127H104.086C102.827 135.127 101.803 134.103 101.803 132.844V24.2715C101.803 23.0127 102.827 21.9883 104.086 21.9883H181.325C182.584 21.9883 183.608 23.0127 183.608 24.2715V132.844C183.609 134.103 182.584 135.127 181.325 135.127ZM104.086 22.0887C102.882 22.0887 101.903 23.0679 101.903 24.2719V132.845C101.903 134.049 102.882 135.028 104.086 135.028H181.325C182.529 135.028 183.508 134.049 183.508 132.845V24.2715C183.508 23.0679 182.529 22.0883 181.325 22.0883L104.086 22.0887Z" fill="#EBEBEB"/>
<path d="M200 152.969H0V153.069H200V152.969Z" fill="#EBEBEB"/>
<path d="M141.054 152.896H158.093L158.376 149.591C158.616 146.784 156.306 144.42 153.494 144.595L144.958 145.128C142.261 145.296 140.286 147.736 140.684 150.409L141.054 152.896Z" fill="#F5F5F5"/>
<path d="M41.5268 152.896H20.4684L20.0056 148.953C19.762 146.878 21.3372 145.036 23.4248 144.954L38.5392 144.362C40.7964 144.274 42.5712 146.27 42.2196 148.501L41.5268 152.896Z" fill="#E6E6E6"/>
<path d="M77.0996 152.895H54.6696L54.3156 149.7C54.0184 147.021 56.1436 144.69 58.8388 144.739L73.3936 145.003C76.2408 145.055 78.3144 147.721 77.6636 150.493L77.0996 152.895Z" fill="#E6E6E6"/>
<path d="M56.7856 152.897H39.7468L39.3892 149.609C39.186 147.74 40.6644 146.115 42.5444 146.141L54.242 146.304C56.162 146.331 57.6052 148.064 57.284 149.957L56.7856 152.897Z" fill="#F5F5F5"/>
<path d="M90.1534 152.896H73.1146L72.8314 149.591C72.591 146.784 74.9014 144.42 77.713 144.595L86.2494 145.128C88.9462 145.296 90.9214 147.736 90.5234 150.409L90.1534 152.896Z" fill="#F5F5F5"/>
<path d="M175.426 152.896H154.368L153.905 148.953C153.661 146.878 155.237 145.036 157.324 144.954L172.439 144.362C174.695 144.274 176.471 146.27 176.119 148.501L175.426 152.896Z" fill="#E6E6E6"/>
<path d="M124.112 152.896H145.17L145.633 148.953C145.877 146.878 144.302 145.036 142.214 144.954L127.1 144.362C124.842 144.274 123.068 146.27 123.419 148.501L124.112 152.896Z" fill="#E6E6E6"/>
<path d="M88.5374 152.895H110.967L111.321 149.7C111.619 147.021 109.493 144.69 106.798 144.739L92.2434 145.003C89.3962 145.055 87.3226 147.721 87.9734 150.493L88.5374 152.895Z" fill="#E6E6E6"/>
<path d="M108.853 152.897H125.892L126.25 149.609C126.453 147.74 124.975 146.115 123.095 146.141L111.397 146.304C109.477 146.331 108.034 148.064 108.355 149.957L108.853 152.897Z" fill="#F5F5F5"/>
<path d="M98.0729 169.488C140.906 169.488 175.629 167.46 175.629 164.959C175.629 162.457 140.906 160.43 98.0729 160.43C55.2402 160.43 20.5173 162.457 20.5173 164.959C20.5173 167.46 55.2402 169.488 98.0729 169.488Z" fill="#F5F5F5"/>
<path d="M58.917 166.805C62.0302 166.805 64.5538 164.282 64.5538 161.168C64.5538 158.055 62.0302 155.531 58.917 155.531H57.2198C54.1066 155.531 51.583 158.055 51.583 161.168C51.583 164.281 54.1066 166.805 57.2198 166.805L58.917 166.805Z" fill="#407BFF"/>
<path opacity="0.5" d="M58.917 166.805C62.0302 166.805 64.5538 164.282 64.5538 161.168C64.5538 158.055 62.0302 155.531 58.917 155.531H57.2198C54.1066 155.531 51.583 158.055 51.583 161.168C51.583 164.281 54.1066 166.805 57.2198 166.805L58.917 166.805Z" fill="white"/>
<path d="M62.7875 162.07C63.2863 158.997 61.1994 156.102 58.1265 155.603C55.0535 155.104 52.1581 157.191 51.6594 160.264C51.1606 163.337 53.2475 166.232 56.3204 166.731C59.3934 167.23 62.2888 165.143 62.7875 162.07Z" fill="#407BFF"/>
<path d="M56.6432 162.587C57.43 162.587 58.0676 161.949 58.0676 161.163C58.0676 160.376 57.43 159.738 56.6432 159.738H49.3756C48.5888 159.738 47.9512 160.376 47.9512 161.163C47.9512 161.949 48.5888 162.587 49.3756 162.587H56.6432Z" fill="#263238"/>
<path d="M44.4667 166.805C47.5799 166.805 50.1035 164.281 50.1035 161.168C50.1035 158.055 47.5799 155.531 44.4667 155.531H42.7695C39.6563 155.531 37.1327 158.055 37.1327 161.168C37.1327 164.281 39.6563 166.805 42.7695 166.805H44.4667Z" fill="#407BFF"/>
<path opacity="0.5" d="M44.4667 166.805C47.5799 166.805 50.1035 164.281 50.1035 161.168C50.1035 158.055 47.5799 155.531 44.4667 155.531H42.7695C39.6563 155.531 37.1327 158.055 37.1327 161.168C37.1327 164.281 39.6563 166.805 42.7695 166.805H44.4667Z" fill="white"/>
<path d="M46.7547 165.154C48.956 162.952 48.956 159.383 46.7547 157.182C44.5534 154.981 40.9844 154.981 38.7831 157.182C36.5819 159.383 36.5819 162.952 38.7831 165.154C40.9844 167.355 44.5534 167.355 46.7547 165.154Z" fill="#407BFF"/>
<path opacity="0.3" d="M46.2408 161.647C46.2624 161.49 46.2744 161.329 46.2744 161.166C46.2744 161.003 46.2624 160.843 46.2408 160.685L45.6424 160.509C45.6028 160.335 45.5492 160.165 45.4804 160.004L45.86 159.511C45.7072 159.226 45.516 158.965 45.2936 158.734L44.7052 158.943C44.5728 158.827 44.43 158.724 44.2784 158.633L44.2956 158.007C44.0104 157.869 43.7032 157.768 43.3808 157.711L43.0284 158.225C42.9412 158.218 42.8532 158.212 42.7636 158.212C42.6744 158.212 42.5864 158.218 42.4988 158.225L42.1464 157.711C41.8244 157.768 41.5172 157.869 41.2316 158.007L41.2488 158.633C41.0972 158.724 40.9544 158.827 40.822 158.943L40.2336 158.734C40.0112 158.965 39.82 159.226 39.6672 159.511L40.0468 160.004C39.9776 160.165 39.9244 160.335 39.8848 160.509L39.2864 160.685C39.2648 160.843 39.2528 161.003 39.2528 161.166C39.2528 161.329 39.2648 161.49 39.2864 161.647L39.8848 161.823C39.9244 161.998 39.9776 162.167 40.0468 162.328L39.6672 162.821C39.82 163.107 40.0112 163.367 40.2336 163.599L40.822 163.389C40.9544 163.505 41.0972 163.609 41.2488 163.699L41.2316 164.325C41.5172 164.464 41.824 164.564 42.1464 164.621L42.4988 164.107C42.586 164.115 42.674 164.121 42.7636 164.121C42.8528 164.121 42.9408 164.115 43.0284 164.107L43.3808 164.621C43.7028 164.564 44.01 164.464 44.2956 164.325L44.2784 163.699C44.43 163.609 44.5728 163.505 44.7052 163.389L45.2936 163.599C45.516 163.367 45.7072 163.107 45.86 162.821L45.4804 162.328C45.5496 162.167 45.6028 161.998 45.6424 161.823L46.2408 161.647Z" fill="white"/>
<path d="M42.6145 162.587C43.4013 162.587 44.0389 161.949 44.0389 161.163C44.0389 160.376 43.4013 159.738 42.6145 159.738H41.4585C40.6717 159.738 40.0341 160.376 40.0341 161.163C40.0341 161.949 40.6717 162.587 41.4585 162.587H42.6145Z" fill="#263238"/>
<path opacity="0.4" d="M42.8829 161.163C42.8829 161.949 42.2453 162.587 41.4585 162.587C40.6717 162.587 40.0341 161.949 40.0341 161.163C40.0341 160.376 40.6717 159.738 41.4585 159.738C42.2453 159.738 42.8829 160.376 42.8829 161.163Z" fill="white"/>
<path d="M126.812 90.4968C126.812 90.4968 130.168 95.7976 132.875 96.874C135.583 97.9504 141.9 93.4396 141.9 93.4396L144.406 92.7424C144.728 92.6204 144.967 92.344 145.04 92.0072L145.397 90.3612C145.449 90.1192 145.397 89.8664 145.253 89.6652L144.966 89.2624C144.648 88.816 144.003 88.7672 143.621 89.16L141.321 91.5256C141.321 91.5256 135.401 94.3392 134.209 93.1024C132.983 91.8316 133.029 91.8836 130.527 88.5156L126.812 90.4968Z" fill="#FFC3BD"/>
<path d="M124.696 82.3141C123.566 82.9925 122.111 86.2569 126.912 91.7429L131.095 88.5485C131.095 88.5485 128.233 80.1913 124.696 82.3141Z" fill="#5735DE"/>
<path opacity="0.1" d="M129.868 89.487C128.944 85.821 127.647 84.4258 127.647 84.4258L126.815 85.5958L125.297 87.7302L125.68 90.1966C126.036 90.6906 126.444 91.2054 126.914 91.7426L129.868 89.487Z" fill="black"/>
<path d="M112.324 126.602C112.146 128.836 111.26 131.61 111.26 131.61C106.495 133.564 94.8849 150.343 94.8849 150.343L96.7689 152.13C96.7689 152.13 112.52 139.936 116.655 134.798C117.862 133.298 118.7 130.076 119.574 128.033C116.154 128.314 113.676 127.268 112.324 126.602Z" fill="#FFC3BD"/>
<path d="M97.2064 151.622L95.0376 149.635C94.9436 149.548 94.8016 149.538 94.6964 149.611L92.3712 151.228C92.164 151.37 92.1108 151.653 92.2528 151.86C92.2712 151.887 92.292 151.911 92.3156 151.934C93.2308 152.748 94.0772 153.437 95.1972 154.472C96.5204 155.692 96.0388 155.541 97.5744 156.997C98.5004 157.873 99.654 156.965 99.3048 156.547C97.6964 154.641 97.6836 153.602 97.5816 152.304C97.5448 152.038 97.4112 151.795 97.2064 151.622Z" fill="#263238"/>
<path opacity="0.1" d="M112.328 126.602C112.277 127.24 112.168 127.922 112.038 128.571C113.329 129.111 115.988 130.011 118.915 129.764C119.138 129.143 119.357 128.55 119.578 128.033C116.158 128.314 113.68 127.268 112.328 126.602Z" fill="black"/>
<path d="M112.715 114.037C112.777 118.002 112.071 123.439 111.802 126.804C113.153 127.47 116.466 128.873 119.887 128.592C121.097 125.764 122.59 122.068 124.083 116.654C125.567 111.278 125.271 103.611 125.271 103.611L111.75 102.766C111.221 111.013 112.715 114.037 112.715 114.037Z" fill="#263238"/>
<path opacity="0.5" d="M125.271 103.611L111.75 102.766C111.221 111.013 112.715 114.038 112.715 114.038C112.736 115.392 112.667 116.92 112.556 118.478C113.376 120.647 115.039 124.956 116.578 128.4C117.624 128.59 118.748 128.686 119.886 128.592C121.097 125.764 122.589 122.068 124.083 116.654C125.567 111.279 125.271 103.611 125.271 103.611Z" fill="black"/>
<path d="M127.219 132.503C126.987 130.855 125.332 124.871 125.332 124.871C122.021 126.639 119.749 127.209 118.475 127.367C119.075 128.776 120.258 131.644 120.809 132.879C120.809 132.879 120.293 138.757 127.333 161.762L130.158 161.315C130.158 161.315 128.229 139.661 127.219 132.503Z" fill="#FFC3BD"/>
<path d="M129.897 160.726L127.023 161.354C126.898 161.381 126.808 161.491 126.807 161.619L126.789 164.451C126.785 164.702 126.986 164.909 127.237 164.912C127.27 164.913 127.302 164.91 127.333 164.903C128.526 164.625 129.577 164.33 131.068 164.011C132.828 163.632 132.426 163.939 134.501 163.523C135.751 163.271 135.674 161.805 135.13 161.849C132.646 162.065 131.789 161.477 130.67 160.813C130.432 160.69 130.156 160.659 129.897 160.726Z" fill="#263238"/>
<path opacity="0.1" d="M125.332 124.871C122.021 126.639 119.749 127.209 118.475 127.367C118.641 127.756 118.851 128.257 119.08 128.803C120.287 128.593 123.028 127.945 125.673 126.127C125.471 125.374 125.332 124.871 125.332 124.871Z" fill="black"/>
<path d="M125.742 125.31C125.742 125.31 123.008 114.853 123.075 111.31C123.114 109.217 124.719 103.098 124.719 103.098L112.125 101.602C112.125 101.602 108.382 108.549 112.116 114.138C112.116 114.138 115.217 121.509 118.126 127.948C119.397 127.762 122.472 127.151 125.742 125.31Z" fill="#263238"/>
<path d="M118.891 72.7413C118.935 74.1513 118.624 75.9353 117.402 76.7897C116.819 77.1981 116.108 77.4073 115.625 77.9561C115.168 78.4761 114.94 79.2085 114.656 79.8269C114.56 80.0373 114.872 80.2217 114.969 80.0097C115.362 79.1529 115.634 78.2861 116.45 77.7449C117.176 77.2633 117.896 77.0445 118.402 76.2893C119.075 75.2873 119.291 73.9313 119.254 72.7405C119.246 72.5089 118.884 72.5077 118.891 72.7413Z" fill="#1A2E35"/>
<path d="M119.078 70.9192C119.078 70.9192 119.398 67.9796 115.156 69.5932C111.098 71.1368 112.641 73.3932 108.818 75.4596C104.994 77.5264 110.998 79.0904 109.622 80.908C108.247 82.7252 112.876 82.9232 114.15 79.638C115.425 76.3528 117.189 77.3556 118.376 75.7276C119.078 74.766 119.383 72.7304 119.383 72.7304L119.078 70.9192Z" fill="#1A2E35"/>
<path d="M121.438 75.4727C121.438 75.4727 121.134 76.7131 119.962 76.2615C118.79 75.8099 120.874 76.1447 121.438 75.4727Z" fill="#1A2E35"/>
<path d="M120.317 73.0909C120.317 73.0909 119.795 72.9849 119.636 73.0469C119.584 73.0673 119.515 73.1273 119.446 73.1993C119.296 73.3553 119.035 73.3025 118.967 73.0973C118.771 72.5137 118.565 71.4625 119.138 70.4961C119.138 70.4961 119.358 70.8945 119.494 70.9257C119.696 70.9725 120.249 70.5837 120.249 70.5837L120.317 73.0909Z" fill="#407BFF"/>
<path d="M111.062 102.033C111.062 102.033 121.131 103.651 126.196 103.754C126.196 103.754 125.972 100.006 126.91 96.6662C127.847 93.3262 130.496 90.5066 127.273 83.6018C125.511 79.827 115.327 79.3046 113.779 82.831C112.178 86.4778 116.47 88.5386 111.062 102.033Z" fill="#5735DE"/>
<path d="M124.898 79.4032L122.171 76.2656C122.311 79.0396 120.171 80.4636 120.171 80.4636C120.171 80.4636 120.449 82.434 124.658 86.008C127.28 84.0996 125.42 81.7752 125.42 81.7752C125.42 81.7752 123.89 80.7868 124.898 79.4032Z" fill="#FFC3BD"/>
<path opacity="0.1" d="M124.682 80.9148C124.503 80.514 124.468 79.9952 124.899 79.4032L122.172 76.2656C122.193 76.6796 122.159 77.0596 122.093 77.4132C122.285 78.248 122.875 79.8024 124.682 80.9148Z" fill="black"/>
<path d="M121.349 71.737C121.147 74.8218 120.999 76.1198 122.346 77.8838C124.371 80.5414 128.204 80.1098 129.323 77.151C130.325 74.4834 130.486 69.8718 127.639 68.293C125.615 67.1434 123.043 67.8514 121.893 69.8754C121.569 70.445 121.383 71.0826 121.349 71.737Z" fill="#FFC3BD"/>
<path d="M126.123 73.1544C126.094 73.4036 126.2 73.6228 126.361 73.6452C126.521 73.6672 126.683 73.4784 126.716 73.2308C126.749 72.9832 126.639 72.7624 126.478 72.74C126.317 72.7176 126.165 72.9196 126.123 73.1544Z" fill="#263238"/>
<path d="M128.937 73.5128C128.906 73.7664 129.014 73.9816 129.174 74.0036C129.335 74.0256 129.496 73.8368 129.53 73.5892C129.563 73.3416 129.452 73.1204 129.29 73.1028C129.128 73.0848 128.97 73.2652 128.937 73.5128Z" fill="#263238"/>
<path d="M129.218 73.1089L129.837 73.0117C129.837 73.0117 129.472 73.4421 129.218 73.1089Z" fill="#263238"/>
<path d="M128.009 73.8594C128.16 74.4562 128.393 75.0298 128.7 75.5638C128.418 75.7126 128.085 75.7318 127.788 75.617L128.009 73.8594Z" fill="#ED893E"/>
<path d="M126.309 76.4188C126.428 76.4536 126.55 76.478 126.673 76.4924C126.713 76.4992 126.75 76.4724 126.757 76.4328C126.757 76.432 126.757 76.4312 126.757 76.4304C126.759 76.3896 126.73 76.354 126.689 76.3492C126.06 76.282 125.499 75.92 125.179 75.3736C125.162 75.3368 125.117 75.3216 125.081 75.3396C125.044 75.3572 125.029 75.4016 125.047 75.4384C125.317 75.9216 125.773 76.2756 126.309 76.4188Z" fill="#263238"/>
<path d="M125.061 72.4408C125.122 72.46 125.189 72.4364 125.225 72.3828C125.547 72.0188 126.005 71.8056 126.491 71.7944C126.573 71.7936 126.639 71.7264 126.639 71.644C126.638 71.5636 126.573 71.4992 126.493 71.5C126.491 71.5 126.489 71.5 126.487 71.5C125.903 71.5092 125.353 71.772 124.979 72.22C124.935 72.2868 124.953 72.3768 125.019 72.4212C125.031 72.432 125.045 72.4384 125.061 72.4408Z" fill="#263238"/>
<path d="M129.945 72.3237C129.997 72.3381 130.053 72.3249 130.092 72.2881C130.151 72.2313 130.153 72.1385 130.098 72.0789C129.779 71.7177 129.301 71.5389 128.823 71.6025C128.746 71.6137 128.693 71.6849 128.704 71.7617C128.704 71.7657 128.705 71.7693 128.706 71.7729C128.72 71.8517 128.795 71.9045 128.874 71.8901C128.875 71.8901 128.876 71.8897 128.877 71.8897C129.251 71.8533 129.62 71.9977 129.87 72.2781C129.89 72.3005 129.916 72.3165 129.945 72.3237Z" fill="#263238"/>
<path d="M126.395 72.7652L127.015 72.668C127.015 72.668 126.655 73.0812 126.395 72.7652Z" fill="#263238"/>
<path d="M122.092 74.0093C122.092 74.0093 123.076 73.0557 123.116 71.5053C123.156 69.9549 125.591 68.2829 128.7 69.1693C128.7 69.1693 129.595 66.3829 127.381 67.5401C127.381 67.5401 123.844 65.1253 120.808 68.6973C118.698 71.1805 119.839 73.8693 120.731 75.2781C121.002 75.7049 121.649 75.6057 121.784 75.1193L122.092 74.0093Z" fill="#263238"/>
<path d="M120.215 73.9829C120.338 74.5553 120.682 75.0561 121.172 75.3765C121.83 75.7921 122.384 75.2593 122.392 74.5181C122.393 73.8509 122.056 72.8313 121.308 72.7013C120.763 72.6245 120.258 73.0041 120.181 73.5501C120.16 73.6949 120.172 73.8429 120.215 73.9829Z" fill="#FFC3BD"/>
<path d="M128.439 69.1001C128.439 69.1001 129.613 68.5969 129.957 69.8045C130.3 71.0117 129.314 69.1453 128.439 69.1001Z" fill="#1A2E35"/>
<path d="M126.931 68.875C126.931 68.875 125.661 69.0066 125.948 70.229C126.235 71.451 126.188 69.3406 126.931 68.875Z" fill="#1A2E35"/>
<path d="M121.162 73.9453C121.162 73.9453 121.749 74.0437 121.667 74.6957C121.667 74.6957 121.509 75.2085 122.101 75.8001C122.101 75.8001 121.979 76.0025 121.771 76.0025C121.771 76.0025 120.026 74.2793 121.162 73.9453Z" fill="#407BFF"/>
<path opacity="0.5" d="M121.162 73.9453C121.162 73.9453 121.749 74.0437 121.667 74.6957C121.667 74.6957 121.509 75.2085 122.101 75.8001C122.101 75.8001 121.979 76.0025 121.771 76.0025C121.771 76.0025 120.026 74.2793 121.162 73.9453Z" fill="white"/>
<path opacity="0.1" d="M118.193 85.6394L116.948 84.9766L113.456 86.2378C113.456 86.2378 113.415 86.3434 113.346 86.5306C113.426 88.6154 113.687 91.283 113.193 94.9626C117.838 89.179 118.193 85.6394 118.193 85.6394Z" fill="black"/>
<path d="M115.474 88.5931C115.474 88.5931 113.041 94.3759 110.549 95.8851C108.056 97.3943 101.08 93.9903 101.08 93.9903L98.4934 93.7171C98.1554 93.6503 97.8742 93.4167 97.7466 93.0967L97.1226 91.5323C97.031 91.3023 97.0402 91.0447 97.149 90.8223L97.3654 90.3779C97.6054 89.8851 98.2334 89.7303 98.675 90.0547L101.334 92.0075C101.334 92.0075 107.638 93.8035 108.609 92.3867C109.608 90.9307 109.571 90.9895 111.482 87.2539L115.474 88.5931Z" fill="#FFC3BD"/>
<path d="M117.323 81.3494C118.453 82.0278 119.908 85.2922 115.108 90.7782L110.924 87.5838C110.924 87.5838 113.786 79.2262 117.323 81.3494Z" fill="#5735DE"/>
<path d="M98.8675 91.6784L98.3839 91.6384C100.282 68.582 97.0271 67.7576 92.9067 66.7136C90.7915 66.1776 88.3943 65.5704 86.4415 61.9172C84.6271 58.5228 85.9927 54.8396 90.0947 52.0648C94.8711 48.8336 102.376 47.3992 109.68 48.3224C115.943 49.1132 124.984 51.9324 132.491 60.8704C137.994 67.422 139.715 73.0104 141.098 77.5004C141.225 77.9124 141.349 78.3156 141.473 78.7096C143.885 86.372 143.63 90.52 143.618 90.6928L143.134 90.6592C143.137 90.6176 143.39 86.4176 141.01 78.8552C140.885 78.4604 140.761 78.0564 140.634 77.6432C139.264 73.1948 137.559 67.6584 132.12 61.1824C119.373 46.006 99.3403 46.3952 90.3663 52.4664C86.4331 55.1268 85.1587 58.488 86.8691 61.6884C88.7211 65.1528 90.9091 65.7072 93.0255 66.2432C95.1355 66.7776 97.1283 67.2824 98.3047 70.6612C99.5699 74.2944 99.7487 80.9728 98.8675 91.6784Z" fill="#407BFF"/>
<g opacity="0.3">
<path d="M98.8675 91.6784L98.3839 91.6384C100.282 68.582 97.0271 67.7576 92.9067 66.7136C90.7915 66.1776 88.3943 65.5704 86.4415 61.9172C84.6271 58.5228 85.9927 54.8396 90.0947 52.0648C94.8711 48.8336 102.376 47.3992 109.68 48.3224C115.943 49.1132 124.984 51.9324 132.491 60.8704C137.994 67.422 139.715 73.0104 141.098 77.5004C141.225 77.9124 141.349 78.3156 141.473 78.7096C143.885 86.372 143.63 90.52 143.618 90.6928L143.134 90.6592C143.137 90.6176 143.39 86.4176 141.01 78.8552C140.885 78.4604 140.761 78.0564 140.634 77.6432C139.264 73.1948 137.559 67.6584 132.12 61.1824C119.373 46.006 99.3403 46.3952 90.3663 52.4664C86.4331 55.1268 85.1587 58.488 86.8691 61.6884C88.7211 65.1528 90.9091 65.7072 93.0255 66.2432C95.1355 66.7776 97.1283 67.2824 98.3047 70.6612C99.5699 74.2944 99.7487 80.9728 98.8675 91.6784Z" fill="white"/>
</g>
<path d="M99.4332 88.832H97.8164V94.4988H99.4332V88.832Z" fill="#407BFF"/>
<path opacity="0.1" d="M99.4332 88.832H97.8164V89.7988H99.4332V88.832Z" fill="black"/>
<path opacity="0.1" d="M99.4332 93.8516H97.8164V94.5004H99.4332V93.8516Z" fill="black"/>
<path d="M99.4387 89.2811H97.8107C97.5639 89.2811 97.3635 89.0807 97.3635 88.8339C97.3635 88.5871 97.5635 88.3867 97.8107 88.3867H99.4387C99.6855 88.3867 99.8859 88.5871 99.8859 88.8339C99.8859 89.0807 99.6855 89.2811 99.4387 89.2811Z" fill="#407BFF"/>
<path d="M99.4387 95.1366H97.8107C97.5639 95.1366 97.3635 94.9362 97.3635 94.6894C97.3635 94.4426 97.5635 94.2422 97.8107 94.2422H99.4387C99.6855 94.2422 99.8859 94.4426 99.8859 94.6894C99.8859 94.9362 99.6855 95.1366 99.4387 95.1366Z" fill="#407BFF"/>
<path d="M144.182 87.8398H142.566V93.5066H144.182V87.8398Z" fill="#407BFF"/>
<path opacity="0.1" d="M144.182 87.8398H142.566V88.8066H144.182V87.8398Z" fill="black"/>
<path opacity="0.1" d="M144.182 92.8594H142.566V93.5082H144.182V92.8594Z" fill="black"/>
<path d="M144.188 88.2889H142.56C142.313 88.2889 142.113 88.0885 142.113 87.8417C142.113 87.5949 142.313 87.3945 142.56 87.3945H144.188C144.435 87.3945 144.635 87.5945 144.635 87.8417C144.635 88.0889 144.435 88.2889 144.188 88.2889Z" fill="#407BFF"/>
<path d="M144.188 94.1444H142.56C142.313 94.1444 142.113 93.944 142.113 93.6972C142.113 93.4504 142.313 93.25 142.56 93.25H144.188C144.435 93.25 144.635 93.45 144.635 93.6972C144.635 93.9444 144.435 94.1444 144.188 94.1444Z" fill="#407BFF"/>
<path d="M71.1336 84.7841C71.1336 84.7841 65.73 87.2077 63.0848 86.2109C60.4396 85.2145 57.6608 77.1641 57.6608 77.1641L55.948 74.8973C55.7108 74.5833 55.7128 74.1493 55.9532 73.8373L57.3764 71.9905C57.5788 71.7281 57.8868 71.5685 58.218 71.5553L58.3116 71.5517C58.9568 71.5257 59.4904 72.0497 59.476 72.6953L59.4132 75.5105C59.4132 75.5105 63.6768 82.3365 65.34 82.2281C67.0032 82.1201 69.716 80.9841 69.716 80.9841L71.1336 84.7841Z" fill="#FFC3BD"/>
<path d="M76.4302 80.622C76.6222 81.8196 76.0222 84.9496 69.0402 86.0748L67.963 81.3324C67.963 81.3324 75.7426 76.3392 76.4302 80.622Z" fill="#263238"/>
<path d="M59.6969 72.2288C60.4025 73.124 61.5001 73.4352 62.1481 72.9244C62.7961 72.4136 62.7489 71.2736 62.0433 70.3788C61.3377 69.4836 60.2401 69.1724 59.5921 69.6832C58.9441 70.1944 58.9909 71.334 59.6969 72.2288Z" fill="#407BFF"/>
<path opacity="0.2" d="M59.6968 72.2257C59.1336 71.5117 58.9976 70.6469 59.2916 70.0649C59.842 69.7725 60.7592 70.1645 61.4184 71.0005C61.9752 71.7065 62.1748 72.5133 61.9768 73.0297C61.3188 73.3745 60.3436 73.0465 59.6968 72.2257Z" fill="black"/>
<path d="M55.1401 75.8197C55.4433 76.2045 56.9041 75.5585 58.4021 74.3769C59.9005 73.1953 60.8689 71.9257 60.5657 71.5409C60.2625 71.1561 58.8017 71.8021 57.3037 72.9837C55.8057 74.1653 54.8369 75.4349 55.1401 75.8197Z" fill="#407BFF"/>
<path opacity="0.2" d="M56.9993 75.3357C56.0813 75.8657 55.3453 76.0785 55.1401 75.8181C54.9309 75.5529 55.3273 74.8661 56.0849 74.0781C56.2589 74.2121 56.4245 74.3721 56.5721 74.5593C56.7665 74.8057 56.9057 75.0705 56.9993 75.3357Z" fill="black"/>
<path d="M53.6107 77.0295C54.3167 77.9247 55.4139 78.2359 56.0619 77.7251C56.7099 77.2143 56.6631 76.0747 55.9571 75.1795C55.2515 74.2847 54.1539 73.9731 53.5063 74.4839C52.8583 74.9947 52.9051 76.1347 53.6107 77.0295Z" fill="#407BFF"/>
<path opacity="0.6" d="M75.0652 83.7191C74.3436 84.3575 73.2708 84.9727 71.6992 85.4599C71.7652 80.6467 74.0884 80.6055 74.0884 80.6055L74.5324 80.8591L75.0652 83.7191Z" fill="black"/>
<path d="M81.6229 120.905L78.9065 129.377C78.9065 129.377 79.5217 132.527 78.9065 136.556C78.2913 140.586 74.8029 161.791 74.8029 161.791L72.1825 162.104C72.1825 162.104 72.5689 134.926 73.1185 129.047C73.6677 123.169 74.3145 118.965 74.3145 118.965L81.6229 120.905Z" fill="#FFC3BD"/>
<path opacity="0.1" d="M74.3147 118.965L81.6231 120.905L79.8731 126.364L73.5071 125.263C73.9331 121.448 74.3147 118.965 74.3147 118.965Z" fill="black"/>
<path d="M86.8649 121.225C86.8649 121.225 89.8597 133.918 100.855 161.446L103.363 160.817C103.363 160.817 98.4413 132.22 95.4345 129.051L93.9145 119.414L86.8649 121.225Z" fill="#FFC3BD"/>
<path opacity="0.1" d="M93.9145 119.414L94.7877 124.952L88.2177 126.139C87.2301 122.811 86.8649 121.225 86.8649 121.225L93.9145 119.414Z" fill="black"/>
<path d="M86.3945 111.864C86.3945 111.864 84.2765 113.82 83.7265 115.405C83.1769 116.989 80.5249 125.527 80.5249 125.527L73.3457 124.233C73.3457 124.233 74.0893 116.213 74.8981 110.522C75.7069 104.831 76.3381 101.457 76.2409 100.973L89.8229 99.8242C89.8229 99.8242 92.5549 109.778 86.3945 111.864Z" fill="#5735DE"/>
<path opacity="0.1" d="M84.1153 106.237L86.3689 111.888C86.1277 112.115 84.2413 113.922 83.7269 115.405C83.5861 115.81 83.3077 116.672 82.9713 117.728C81.9565 111.999 82.5141 105.703 82.5141 105.703L84.1153 106.237Z" fill="black"/>
<path d="M82.3471 101.014C82.3471 101.014 81.0303 105.571 84.6711 115.271C85.6751 117.946 87.2927 125.103 87.2927 125.103L95.0783 123.551L93.3943 114.066C93.3943 114.066 93.7371 104.656 91.0855 100.129L82.3471 101.014Z" fill="#5735DE"/>
<path d="M72.2158 161.495L74.9426 161.445C75.061 161.445 75.1638 161.527 75.1894 161.643L76.1714 164.249C76.2234 164.475 76.0822 164.701 75.8558 164.753C75.8266 164.76 75.797 164.763 75.7674 164.764C74.635 164.744 73.6278 164.682 72.2182 164.683C70.5542 164.684 70.9766 164.883 69.0206 164.91C67.8422 164.926 67.6266 163.586 68.1262 163.52C70.4134 163.233 70.651 162.542 71.5334 161.723C71.725 161.566 71.9678 161.485 72.2158 161.495Z" fill="#263238"/>
<path d="M100.666 160.874L103.323 160.256C103.438 160.231 103.556 160.29 103.605 160.397L105.111 162.74C105.209 162.951 105.118 163.201 104.907 163.299C104.88 163.312 104.852 163.322 104.823 163.328C103.711 163.545 102.714 163.695 101.335 163.992C99.7082 164.34 100.163 164.446 98.2558 164.882C97.1066 165.144 96.6158 163.879 97.0906 163.71C99.267 162.95 99.355 162.226 100.047 161.24C100.201 161.046 100.422 160.916 100.666 160.874Z" fill="#263238"/>
<path d="M74.8492 65.1076C74.8492 65.1076 72.9988 64.9544 73.9868 67.678L75.1948 66.5456L75.9808 65.0312L74.8492 65.1076Z" fill="#263238"/>
<path opacity="0.6" d="M74.8492 65.1076C74.8492 65.1076 72.9988 64.9544 73.9868 67.678L75.1948 66.5456L75.9808 65.0312L74.8492 65.1076Z" fill="black"/>
<path d="M91.57 100.641C91.57 100.641 88.4764 100.916 75.938 101.648C75.938 101.648 75.2392 98.4138 74.3496 92.879C73.336 86.5714 72.1832 80.7634 73.6748 79.1954C75.368 77.4154 83.4376 77.6638 87.1464 77.673C88.3392 77.6758 89.3336 78.5818 89.4484 79.769L91.57 100.641Z" fill="#263238"/>
<path d="M84.3354 77.6565C84.3166 78.5061 83.5658 80.3009 79.3666 83.5641C79.3666 83.5641 76.1526 80.4717 76.4834 78.1061C78.7306 77.7069 81.7966 77.6517 84.3354 77.6565Z" fill="#5735DE"/>
<path d="M79.3518 82.513C79.3518 82.513 76.9022 79.2506 77.5678 77.9462C79.2674 77.739 81.2566 77.6746 83.0982 77.6602C83.0942 78.2746 82.6938 79.8902 79.3518 82.513Z" fill="#FFC3BD"/>
<path d="M79.2789 81.5744L77.6709 78.7884C78.8897 77.9176 78.5973 77.126 77.9533 75.9352L80.7801 71.918C80.8965 73.9 81.2413 76.7632 82.8881 77.6844C82.8881 77.6844 82.9581 78.0076 82.7169 78.6236L79.2789 81.5744Z" fill="#FFC3BD"/>
<path opacity="0.2" d="M78.4041 76.9089C78.3053 76.6121 78.1461 76.2929 77.9541 75.9377L79.7297 73.4141C80.0953 73.5357 80.7137 73.3909 80.9385 73.6021C80.9561 73.7293 80.9745 73.8565 80.9957 73.9841C80.8349 74.9609 79.5913 76.4101 78.4041 76.9089Z" fill="black"/>
<path d="M82.0496 68.5697C82.1664 71.5949 82.2772 72.8694 80.9128 74.561C78.86 77.1098 75.1192 76.5866 74.1016 73.661C73.1896 71.0234 73.1536 66.5046 75.9816 65.0334C77.9928 63.9606 80.4928 64.7214 81.5656 66.7326C81.8672 67.2994 82.0332 67.9281 82.0496 68.5697Z" fill="#FFC3BD"/>
<path d="M77.3371 69.8342C77.3587 70.079 77.2491 70.291 77.0915 70.3086C76.9339 70.3262 76.7807 70.137 76.7547 69.8934C76.7287 69.6498 76.8427 69.4366 77.0003 69.419C77.1579 69.4018 77.3011 69.6034 77.3371 69.8342Z" fill="#1A2E35"/>
<path d="M74.5744 70.1111C74.5976 70.3599 74.4864 70.5679 74.3288 70.5851C74.1712 70.6027 74.018 70.4135 73.992 70.1699C73.966 69.9263 74.08 69.7131 74.2388 69.6999C74.3976 69.6871 74.5484 69.8679 74.5744 70.1111Z" fill="#1A2E35"/>
<path d="M75.4703 70.4688C75.3067 71.0492 75.0643 71.6044 74.7499 72.1192C75.0219 72.272 75.3471 72.2999 75.6411 72.1951L75.4703 70.4688Z" fill="#FF8935"/>
<path d="M77.0677 73.0209C76.9505 73.0521 76.8309 73.0729 76.7101 73.0833C76.6713 73.0889 76.6353 73.0617 76.6297 73.0229C76.6297 73.0221 76.6293 73.0213 76.6293 73.0205C76.6281 72.9805 76.6581 72.9465 76.6977 72.9429C77.3157 72.8933 77.8737 72.5537 78.2017 72.0273C78.2201 71.9917 78.2637 71.9781 78.2989 71.9965C78.3345 72.0149 78.3481 72.0585 78.3297 72.0937C78.0521 72.5601 77.5965 72.8949 77.0677 73.0209Z" fill="#1A2E35"/>
<path d="M78.3941 69.1659C78.3333 69.1831 78.2685 69.1583 78.2349 69.1047C77.9297 68.7399 77.4865 68.5191 77.0113 68.4955C76.9309 68.4927 76.8677 68.4251 76.8701 68.3443C76.8729 68.2659 76.9385 68.2043 77.0169 68.2071C77.0189 68.2071 77.0205 68.2071 77.0221 68.2075C77.5933 68.2319 78.1253 68.5035 78.4797 68.9519C78.5213 69.0183 78.5013 69.1063 78.4349 69.1479C78.4233 69.1579 78.4093 69.1639 78.3941 69.1659Z" fill="#1A2E35"/>
<path d="M73.618 68.9209C73.5668 68.9337 73.5128 68.9193 73.4752 68.8825C73.4196 68.8253 73.4196 68.7345 73.4752 68.6773C73.7972 68.3321 74.27 68.1697 74.736 68.2445C74.8112 68.2573 74.8612 68.3285 74.8484 68.4037C74.8476 68.4073 74.8468 68.4109 74.846 68.4149C74.83 68.4917 74.7548 68.5413 74.678 68.5253C74.6772 68.5253 74.676 68.5249 74.676 68.5249C74.3108 68.4797 73.9456 68.6109 73.6932 68.8789C73.6732 68.9001 73.6468 68.9149 73.618 68.9209Z" fill="#1A2E35"/>
<path d="M81.1567 71.2296L80.1775 71.046C80.1775 71.046 80.8199 68.8028 80.3611 68.226C79.9019 67.6492 78.8439 67.19 78.5011 66.1192C78.1579 65.0484 72.9103 67.1552 73.7511 62.738C73.7511 62.738 74.1411 63.9308 74.7499 64.3752C74.7499 64.3752 73.8739 61.3456 77.2095 61.6824C80.5451 62.0188 82.6427 65.5076 82.6427 65.5076C82.6427 65.5076 86.9575 68.3328 82.4943 72.476C82.1579 72.7884 81.6123 72.6776 81.4343 72.2544L81.1567 71.2296Z" fill="#263238"/>
<path d="M83.0999 70.8052C82.9643 71.3624 82.6147 71.8432 82.1267 72.1444C81.4719 72.534 80.9431 71.998 80.9547 71.272C80.9711 70.6188 81.3283 69.6292 82.0631 69.522C82.5995 69.4608 83.0839 69.846 83.1447 70.3824C83.1611 70.5248 83.1455 70.6692 83.0999 70.8052Z" fill="#FFC3BD"/>
<path d="M82.4886 65.7323C82.4886 65.7323 83.669 63.9683 84.7098 65.3895C85.7834 66.8563 83.3146 65.2247 82.4886 65.7323Z" fill="#263238"/>
<path d="M81.9371 70.582C81.9371 70.582 81.2399 70.6988 81.3371 71.4732C81.3371 71.4732 81.5243 72.082 80.8219 72.7848C80.8219 72.7848 80.9667 73.0252 81.2143 73.0252C81.2143 73.0252 83.2867 70.9788 81.9371 70.582Z" fill="#407BFF"/>
<path opacity="0.8" d="M81.9371 70.582C81.9371 70.582 81.2399 70.6988 81.3371 71.4732C81.3371 71.4732 81.5243 72.082 80.8219 72.7848C80.8219 72.7848 80.9667 73.0252 81.2143 73.0252C81.2143 73.0252 83.2867 70.9788 81.9371 70.582Z" fill="white"/>
<path opacity="0.6" d="M89.6499 81.9098L90.1187 86.9206C87.4743 85.007 86.9299 81.8686 86.9299 81.8686L88.0943 81.5742L89.6499 81.9098Z" fill="black"/>
<path d="M90.4869 83.1105C90.4869 83.1105 96.7281 83.7505 99.2481 82.2881C101.768 80.8257 102.948 72.5573 102.948 72.5573L104.204 69.4125C104.421 68.8705 104.215 68.2513 103.717 67.9465L102.569 67.2429C102.329 67.0961 102.046 67.0381 101.768 67.0793L101.34 67.1429C100.714 67.2357 100.269 67.7993 100.323 68.4297L100.631 72.0389C100.631 72.0389 98.8185 78.7349 97.1093 78.9073C95.3529 79.0845 95.4221 79.0805 91.2277 78.9645L90.4869 83.1105Z" fill="#FFC3BD"/>
<path d="M85.583 80.209C85.5346 81.5714 86.5334 84.0322 93.813 83.6518L93.8894 78.389C93.8894 78.389 85.7454 75.6338 85.583 80.209Z" fill="#263238"/>
<path d="M100.5 68.0023C100.008 69.0303 99.0061 69.5751 98.2617 69.2187C97.5177 68.8623 97.3133 67.7403 97.8053 66.7123C98.2973 65.6843 99.2997 65.1395 100.044 65.4959C100.788 65.8519 100.992 66.9743 100.5 68.0023Z" fill="#407BFF"/>
<path opacity="0.2" d="M100.5 68.0018C100.893 67.1814 100.835 66.3082 100.421 65.805C99.8198 65.6406 99.011 66.2242 98.5514 67.1842C98.163 67.9954 98.1454 68.8262 98.4522 69.2866C99.169 69.4782 100.049 68.9442 100.5 68.0018Z" fill="black"/>
<path d="M105.733 70.5096C105.521 70.9516 103.955 70.6416 102.233 69.8176C100.513 68.9936 99.2885 67.9676 99.5001 67.5256C99.7117 67.0836 101.279 67.3936 102.999 68.2176C104.721 69.0416 105.944 70.0676 105.733 70.5096Z" fill="#407BFF"/>
<path opacity="0.2" d="M103.813 70.4432C104.825 70.7588 105.589 70.8052 105.732 70.506C105.878 70.2012 105.341 69.6184 104.429 69.0156C104.288 69.1844 104.162 69.3768 104.059 69.5916C103.924 69.8748 103.846 70.1636 103.813 70.4432Z" fill="black"/>
<path d="M107.492 71.3465C107 72.3745 105.998 72.9193 105.253 72.5629C104.509 72.2065 104.305 71.0845 104.797 70.0561C105.289 69.0281 106.291 68.4833 107.036 68.8397C107.78 69.1961 107.984 70.3185 107.492 71.3465Z" fill="#407BFF"/>
</svg>
