<svg width="20" height="20" viewBox="0 0 20 20" fill="none" xmlns="http://www.w3.org/2000/svg">
<mask id="mask0_1421_26247" style="mask-type:alpha" maskUnits="userSpaceOnUse" x="0" y="0" width="20" height="20">
<rect width="20" height="20" fill="#D9D9D9"/>
</mask>
<g mask="url(#mask0_1421_26247)">
<path d="M5.01793 14.4109C5.72626 13.8853 6.49789 13.4702 7.33282 13.1657C8.16775 12.8612 9.05637 12.709 9.99868 12.709C10.941 12.709 11.8296 12.8612 12.6645 13.1657C13.4995 13.4702 14.2711 13.8853 14.9794 14.4109C15.4976 13.8415 15.9081 13.1823 16.211 12.4333C16.5139 11.6844 16.6653 10.8735 16.6653 10.0006C16.6653 8.15341 16.016 6.58049 14.7174 5.28188C13.4188 3.98327 11.8459 3.33396 9.99868 3.33396C8.15146 3.33396 6.57854 3.98327 5.27993 5.28188C3.98132 6.58049 3.33201 8.15341 3.33201 10.0006C3.33201 10.8735 3.48345 11.6844 3.78634 12.4333C4.08923 13.1823 4.49976 13.8415 5.01793 14.4109ZM9.99893 10.6256C9.23808 10.6256 8.59644 10.3645 8.07401 9.84222C7.55158 9.31994 7.29037 8.67838 7.29037 7.91755C7.29037 7.1567 7.5515 6.51506 8.07376 5.99263C8.59604 5.4702 9.23759 5.20898 9.99843 5.20898C10.7593 5.20898 11.4009 5.47012 11.9233 5.99238C12.4458 6.51466 12.707 7.15621 12.707 7.91705C12.707 8.6779 12.4459 9.31953 11.9236 9.84196C11.4013 10.3644 10.7598 10.6256 9.99893 10.6256ZM9.99868 17.9173C8.89932 17.9173 7.86807 17.7105 6.90495 17.2971C5.94181 16.8836 5.10393 16.3206 4.39132 15.608C3.67873 14.8954 3.1157 14.0575 2.70224 13.0944C2.28877 12.1312 2.08203 11.1 2.08203 10.0006C2.08203 8.90127 2.28877 7.87003 2.70224 6.9069C3.1157 5.94376 3.67873 5.10589 4.39132 4.39328C5.10393 3.68068 5.94181 3.11765 6.90495 2.70419C7.86807 2.29072 8.89932 2.08398 9.99868 2.08398C11.098 2.08398 12.1293 2.29072 13.0924 2.70419C14.0555 3.11765 14.8934 3.68068 15.606 4.39328C16.3186 5.10589 16.8817 5.94376 17.2951 6.9069C17.7086 7.87003 17.9153 8.90127 17.9153 10.0006C17.9153 11.1 17.7086 12.1312 17.2951 13.0944C16.8817 14.0575 16.3186 14.8954 15.606 15.608C14.8934 16.3206 14.0555 16.8836 13.0924 17.2971C12.1293 17.7105 11.098 17.9173 9.99868 17.9173ZM9.99868 16.6673C10.7508 16.6673 11.476 16.5463 12.1742 16.3043C12.8724 16.0623 13.4923 15.7239 14.0339 15.2891C13.4923 14.8703 12.8804 14.5439 12.1982 14.3099C11.516 14.0759 10.7829 13.9589 9.99868 13.9589C9.21448 13.9589 8.47997 14.0746 7.79514 14.3059C7.1103 14.5372 6.49973 14.8649 5.96341 15.2891C6.50507 15.7239 7.125 16.0623 7.8232 16.3043C8.52138 16.5463 9.24654 16.6673 9.99868 16.6673ZM9.99868 9.37565C10.4132 9.37565 10.7599 9.23623 11.0388 8.95738C11.3176 8.67852 11.457 8.33183 11.457 7.9173C11.457 7.50277 11.3176 7.15608 11.0388 6.87721C10.7599 6.59837 10.4132 6.45894 9.99868 6.45894C9.58415 6.45894 9.23746 6.59837 8.95859 6.87721C8.67975 7.15608 8.54032 7.50277 8.54032 7.9173C8.54032 8.33183 8.67975 8.67852 8.95859 8.95738C9.23746 9.23623 9.58415 9.37565 9.99868 9.37565Z" fill="#1C1B1F"/>
</g>
</svg>
