<svg width="24" height="24" viewBox="0 0 24 24" fill="none" xmlns="http://www.w3.org/2000/svg">
<g id="attach_money">
<mask id="mask0_97_10164" style="mask-type:alpha" maskUnits="userSpaceOnUse" x="0" y="0" width="24" height="24">
<rect id="Bounding box" width="24" height="24" fill="#D9D9D9"/>
</mask>
<g mask="url(#mask0_97_10164)">
<path id="attach_money_2" d="M10.9884 21.0895V18.9216C10.0732 18.7136 9.29077 18.3153 8.64113 17.7267C7.9915 17.1381 7.51867 16.3112 7.22266 15.246L9.24603 14.4422C9.49203 15.2582 9.85788 15.8705 10.3436 16.2792C10.8293 16.6879 11.4601 16.8922 12.2362 16.8922C12.9076 16.8922 13.4678 16.747 13.9169 16.4566C14.366 16.1662 14.5906 15.714 14.5906 15.0998C14.5906 14.5444 14.4053 14.0968 14.0346 13.7572C13.664 13.4175 12.8159 13.037 11.4906 12.6156C10.0732 12.1736 9.09385 11.6311 8.55253 10.9882C8.01123 10.3452 7.74058 9.56578 7.74058 8.64983C7.74058 7.58245 8.0856 6.73879 8.77563 6.11886C9.46566 5.49892 10.2033 5.13533 10.9884 5.02808V2.91016H13.0781V5.02808C13.9274 5.17736 14.6288 5.49747 15.1824 5.98841C15.7361 6.47936 16.1419 7.08244 16.3998 7.79766L14.3884 8.65743C14.1924 8.13208 13.9101 7.73408 13.5414 7.46343C13.1727 7.19276 12.6777 7.05743 12.0564 7.05743C11.3509 7.05743 10.8195 7.20798 10.4621 7.50908C10.1046 7.81016 9.92591 8.18444 9.92591 8.63191C9.92591 9.15401 10.161 9.56741 10.6311 9.87211C11.1012 10.1768 11.9609 10.5082 13.2102 10.8661C14.3761 11.2074 15.2619 11.7456 15.8675 12.4805C16.4731 13.2155 16.7759 14.0719 16.7759 15.0498C16.7759 16.2491 16.4219 17.1631 15.714 17.7917C15.006 18.4203 14.1274 18.8136 13.0781 18.9716V21.0895H10.9884Z" fill="#F2F2F2"/>
</g>
</g>
</svg>
