<svg width="68" height="68" viewBox="0 0 68 68" fill="none" xmlns="http://www.w3.org/2000/svg">
<g id="sentiment_very_dissatisfied">
<mask id="mask0_1353_25747" style="mask-type:alpha" maskUnits="userSpaceOnUse" x="0" y="0" width="68" height="68">
<rect id="Bounding box" width="68" height="68" fill="#D9D9D9"/>
</mask>
<g mask="url(#mask0_1353_25747)">
<path id="sentiment_very_dissatisfied_2" d="M33.9961 38.4271C30.8812 38.4271 28.0546 39.3007 25.5164 41.048C22.9782 42.7952 21.107 45.1091 19.9029 47.9896H48.0945C46.914 45.0618 45.0478 42.7362 42.4961 41.0125C39.9444 39.2889 37.1111 38.4271 33.9961 38.4271ZM21.107 33.2917L24.6487 30.1396L27.8008 33.2917L29.9258 30.848L26.7383 27.6432L29.9258 24.5084L27.8008 22.0292L24.6487 25.2167L21.107 22.0292L18.982 24.5084L22.1695 27.6432L18.982 30.848L21.107 33.2917ZM40.2674 33.2917L43.3487 30.1396L46.9612 33.2917L49.0862 30.848L45.8987 27.6432L49.0862 24.5084L46.9612 22.0292L43.3487 25.2167L40.2674 22.0292L38.1424 24.5084L41.2591 27.6432L38.1424 30.848L40.2674 33.2917ZM34.0032 61.9792C30.128 61.9792 26.4902 61.2445 23.0899 59.775C19.6897 58.3055 16.7265 56.3104 14.2004 53.7896C11.6743 51.2688 9.67925 48.3099 8.21536 44.9129C6.75148 41.5159 6.01953 37.8798 6.01953 34.0046C6.01953 30.1293 6.75426 26.4916 8.22372 23.0913C9.69323 19.691 11.6884 16.7278 14.2091 14.2017C16.73 11.6756 19.6889 9.6806 23.0858 8.21671C26.4828 6.75282 30.1189 6.02087 33.9942 6.02087C37.8694 6.02087 41.5072 6.7556 44.9075 8.22506C48.3077 9.69457 51.2709 11.6897 53.797 14.2105C56.3231 16.7313 58.3181 19.6902 59.782 23.0872C61.2459 26.4841 61.9779 30.1203 61.9779 33.9955C61.9779 37.8708 61.2431 41.5085 59.7737 44.9088C58.3042 48.3091 56.309 51.2723 53.7883 53.7984C51.2674 56.3245 48.3085 58.3195 44.9116 59.7834C41.5146 61.2473 37.8785 61.9792 34.0032 61.9792Z" fill="#5735DE"/>
</g>
</g>
</svg>
