<svg width="40" height="40" viewBox="0 0 40 40" fill="none" xmlns="http://www.w3.org/2000/svg">
<rect width="39.6364" height="39.6364" rx="3" fill="#151515"/>
<mask id="mask0_1357_33564" style="mask-type:alpha" maskUnits="userSpaceOnUse" x="10" y="10" width="20" height="20">
<rect x="10" y="10" width="19.6364" height="19.6364" fill="#D9D9D9"/>
</mask>
<g mask="url(#mask0_1357_33564)">
<path d="M18.998 26.3634C18.7662 26.3634 18.5719 26.285 18.4151 26.1281C18.2583 25.9713 18.1798 25.777 18.1798 25.5452V20.6361L13.4344 14.5816C13.2298 14.3088 13.1992 14.0225 13.3423 13.7225C13.4855 13.4225 13.7344 13.2725 14.0889 13.2725H25.5435C25.898 13.2725 26.1469 13.4225 26.2901 13.7225C26.4333 14.0225 26.4026 14.3088 26.198 14.5816L21.4526 20.6361V25.5452C21.4526 25.777 21.3742 25.9713 21.2173 26.1281C21.0605 26.285 20.8662 26.3634 20.6344 26.3634H18.998ZM19.8162 20.0634L23.8662 14.9088H15.7662L19.8162 20.0634Z" fill="#F2F2F2"/>
</g>
</svg>
