<svg width="24" height="24" viewBox="0 0 24 24" fill="none" xmlns="http://www.w3.org/2000/svg">
<g id="folder_copy">
<mask id="mask0_97_10202" style="mask-type:alpha" maskUnits="userSpaceOnUse" x="0" y="0" width="24" height="24">
<rect id="Bounding box" width="24" height="24" fill="#D9D9D9"/>
</mask>
<g mask="url(#mask0_97_10202)">
<path id="folder_copy_2" d="M3.61538 19.7693C3.17114 19.7693 2.79086 19.6111 2.47453 19.2947C2.15818 18.9784 2 18.5981 2 18.1538V7.07693H3V18.1538C3 18.3333 3.05769 18.4808 3.17307 18.5962C3.28846 18.7115 3.43589 18.7692 3.61538 18.7692H19V19.7693H3.61538ZM6.61538 16.7692C6.17116 16.7692 5.79088 16.611 5.47453 16.2947C5.15818 15.9784 5 15.5981 5 15.1538V4.61537C5 4.17114 5.15818 3.79086 5.47453 3.47453C5.79088 3.15818 6.17116 3 6.61538 3H11.5769L13.5769 5H20.3846C20.8289 5 21.2091 5.15818 21.5255 5.47453C21.8418 5.79086 22 6.17114 22 6.61537V15.1538C22 15.5981 21.8418 15.9784 21.5255 16.2947C21.2091 16.611 20.8289 16.7692 20.3846 16.7692H6.61538Z" fill="#F2F2F2"/>
</g>
</g>
</svg>
