<svg width="20" height="20" viewBox="0 0 20 20" fill="none" xmlns="http://www.w3.org/2000/svg">
<mask id="mask0_1421_26267" style="mask-type:alpha" maskUnits="userSpaceOnUse" x="0" y="0" width="20" height="20">
<rect width="20" height="20" fill="#D9D9D9"/>
</mask>
<g mask="url(#mask0_1421_26267)">
<path d="M4.42829 17.0826C4.00735 17.0826 3.65104 16.9368 3.35938 16.6451C3.06771 16.3535 2.92188 15.9972 2.92188 15.5762V4.42243C2.92188 4.00149 3.06771 3.64518 3.35938 3.35352C3.65104 3.06185 4.00735 2.91602 4.42829 2.91602H10.0132V4.166H4.42829C4.36418 4.166 4.30541 4.1927 4.25198 4.24612C4.19856 4.29955 4.17185 4.35832 4.17185 4.42243V15.5762C4.17185 15.6403 4.19856 15.6991 4.25198 15.7525C4.30541 15.806 4.36418 15.8327 4.42829 15.8327H10.0132V17.0826H4.42829ZM13.5308 13.557L12.6655 12.6532L14.6943 10.6243H7.58531V9.37435H14.6943L12.6655 7.3455L13.5308 6.44168L17.0885 9.99933L13.5308 13.557Z" fill="#494949"/>
</g>
</svg>
