<svg width="20" height="20" viewBox="0 0 20 20" fill="none" xmlns="http://www.w3.org/2000/svg">
<mask id="mask0_1421_26252" style="mask-type:alpha" maskUnits="userSpaceOnUse" x="0" y="0" width="20" height="20">
<rect width="20" height="20" fill="#D9D9D9"/>
</mask>
<g mask="url(#mask0_1421_26252)">
<path d="M3.75 15.7378V14.4878H5.25642V8.26986C5.25642 7.14914 5.6023 6.15822 6.29406 5.29711C6.98584 4.436 7.87393 3.88526 8.95833 3.64488V3.12565C8.95833 2.8363 9.05951 2.59036 9.26188 2.38782C9.46424 2.18526 9.70996 2.08398 9.99904 2.08398C10.2881 2.08398 10.5342 2.18526 10.7371 2.38782C10.9401 2.59036 11.0416 2.8363 11.0416 3.12565V3.64488C12.126 3.88526 13.0141 4.436 13.7059 5.29711C14.3977 6.15822 14.7435 7.14914 14.7435 8.26986V14.4878H16.25V15.7378H3.75ZM9.99856 18.0775C9.58391 18.0775 9.22942 17.93 8.93508 17.635C8.64075 17.34 8.49358 16.9854 8.49358 16.5711H11.5064C11.5064 16.9867 11.3587 17.3417 11.0635 17.636C10.7682 17.9304 10.4132 18.0775 9.99856 18.0775ZM6.50638 14.4878H13.4936V8.26986C13.4936 7.30511 13.1525 6.48166 12.4703 5.79951C11.7882 5.11734 10.9647 4.77626 9.99998 4.77626C9.03523 4.77626 8.21178 5.11734 7.52962 5.79951C6.84746 6.48166 6.50638 7.30511 6.50638 8.26986V14.4878Z" fill="#1C1B1F"/>
</g>
</svg>
