<svg width="24" height="24" viewBox="0 0 24 24" fill="none" xmlns="http://www.w3.org/2000/svg">
<path d="M8.625 5.85V4.65C8.625 4.56716 8.69216 4.5 8.775 4.5H10.125L10.7139 3.79328C11.3558 3.02301 12.5582 3.08724 13.1143 3.92151L13.5 4.5H14.9496C15.0325 4.5 15.0996 4.56716 15.0996 4.65V5.85C15.0996 5.93284 15.0325 6 14.9496 6H8.775C8.69216 6 8.625 5.93284 8.625 5.85Z" stroke="#F2F2F2" stroke-width="1.5"/>
<path d="M8.62109 8.25L7.49609 10.125" stroke="#F2F2F2" stroke-width="1.5" stroke-linecap="round"/>
<path d="M7.29898 8.40064L8.81892 9.97259" stroke="#F2F2F2" stroke-width="1.5" stroke-linecap="round"/>
<path d="M16.6133 12.75L15.4883 14.625" stroke="#F2F2F2" stroke-width="1.5" stroke-linecap="round"/>
<path d="M15.2912 12.9006L16.8111 14.4726" stroke="#F2F2F2" stroke-width="1.5" stroke-linecap="round"/>
<circle cx="16.875" cy="9.375" r="1.125" fill="#F2F2F2"/>
<circle cx="7.875" cy="14.625" r="1.125" fill="#F2F2F2"/>
<circle cx="13.875" cy="19.125" r="1.125" fill="#F2F2F2"/>
<path d="M15 10.5L10.5 13.5" stroke="#F2F2F2" stroke-width="1.5" stroke-linecap="round"/>
<path d="M9.375 15.75L12.375 18" stroke="#F2F2F2" stroke-width="1.5" stroke-linecap="round"/>
<g clip-path="url(#clip0_97_10183)">
<path d="M16.3535 6.66992C16.3348 6.65117 16.3242 6.62574 16.3242 6.59922C16.3242 6.5727 16.3348 6.54727 16.3535 6.52852L16.8035 6.07852C16.8223 6.05977 16.8477 6.04924 16.8742 6.04924C16.9007 6.04924 16.9261 6.05977 16.9449 6.07852L17.3949 6.52852C17.4131 6.54738 17.4232 6.57264 17.423 6.59886C17.4227 6.62508 17.4122 6.65016 17.3937 6.6687C17.3751 6.68724 17.3501 6.69776 17.3238 6.69799C17.2976 6.69821 17.2724 6.68813 17.2535 6.66992L16.9742 6.39922L16.9742 7.34922C16.9742 7.37574 16.9637 7.40118 16.9449 7.41993C16.9262 7.43868 16.9007 7.44922 16.8742 7.44922C16.8477 7.44922 16.8222 7.43868 16.8035 7.41993C16.7847 7.40118 16.7742 7.37574 16.7742 7.34922L16.7742 6.39922L16.4949 6.66992C16.4761 6.68867 16.4507 6.6992 16.4242 6.6992C16.3977 6.6992 16.3723 6.68867 16.3535 6.66992Z" fill="#F2F2F2" stroke="#F2F2F2" stroke-width="0.15"/>
</g>
<path d="M9.75 4.5H6.75C5.92157 4.5 5.25 5.17157 5.25 6V21C5.25 21.8284 5.92157 22.5 6.75 22.5H17.25C18.0784 22.5 18.75 21.8284 18.75 21V6C18.75 5.17157 18.0784 4.5 17.25 4.5H15" stroke="#F2F2F2" stroke-width="1.5"/>
<defs>
<clipPath id="clip0_97_10183">
<rect width="1.5" height="1.5" fill="white" transform="translate(16.125 7.5) rotate(-90)"/>
</clipPath>
</defs>
</svg>
