<svg width="68" height="68" viewBox="0 0 68 68" fill="none" xmlns="http://www.w3.org/2000/svg">
<g id="sentiment_very_dissatisfied">
<mask id="mask0_1353_25519" style="mask-type:alpha" maskUnits="userSpaceOnUse" x="0" y="0" width="68" height="68">
<rect id="Bounding box" width="68" height="68" fill="#D9D9D9"/>
</mask>
<g mask="url(#mask0_1353_25519)">
<path id="sentiment_very_dissatisfied_2" d="M33.9961 38.4258C30.8812 38.4258 28.0546 39.2994 25.5164 41.0466C22.9782 42.7938 21.107 45.1077 19.9029 47.9883H48.0945C46.914 45.0605 45.0478 42.7348 42.4961 41.0112C39.9444 39.2876 37.1111 38.4258 33.9961 38.4258ZM21.107 33.2904L24.6487 30.1383L27.8008 33.2904L29.9258 30.8466L26.7383 27.6418L29.9258 24.507L27.8008 22.0279L24.6487 25.2154L21.107 22.0279L18.982 24.507L22.1695 27.6418L18.982 30.8466L21.107 33.2904ZM40.2674 33.2904L43.3487 30.1383L46.9612 33.2904L49.0862 30.8466L45.8987 27.6418L49.0862 24.507L46.9612 22.0279L43.3487 25.2154L40.2674 22.0279L38.1424 24.507L41.2591 27.6418L38.1424 30.8466L40.2674 33.2904ZM34.0032 61.9779C30.128 61.9779 26.4902 61.2431 23.0899 59.7737C19.6897 58.3042 16.7265 56.309 14.2004 53.7883C11.6743 51.2674 9.67925 48.3085 8.21536 44.9116C6.75148 41.5146 6.01953 37.8785 6.01953 34.0032C6.01953 30.128 6.75426 26.4902 8.22372 23.0899C9.69323 19.6897 11.6884 16.7265 14.2091 14.2004C16.73 11.6743 19.6889 9.67925 23.0858 8.21536C26.4828 6.75148 30.1189 6.01953 33.9942 6.01953C37.8694 6.01953 41.5072 6.75426 44.9075 8.22372C48.3077 9.69323 51.2709 11.6884 53.797 14.2091C56.3231 16.73 58.3181 19.6889 59.782 23.0858C61.2459 26.4828 61.9779 30.1189 61.9779 33.9942C61.9779 37.8694 61.2431 41.5072 59.7737 44.9075C58.3042 48.3077 56.309 51.2709 53.7883 53.797C51.2674 56.3231 48.3085 58.3181 44.9116 59.782C41.5146 61.2459 37.8785 61.9779 34.0032 61.9779Z" fill="#F14545"/>
</g>
</g>
</svg>
