<svg width="20" height="20" viewBox="0 0 20 20" fill="none" xmlns="http://www.w3.org/2000/svg">
<mask id="mask0_1421_26257" style="mask-type:alpha" maskUnits="userSpaceOnUse" x="0" y="0" width="20" height="20">
<rect width="20" height="20" fill="#D9D9D9"/>
</mask>
<g mask="url(#mask0_1421_26257)">
<path d="M8.07501 17.9173L7.7577 15.3788C7.53441 15.304 7.3055 15.1993 7.07099 15.0647C6.83648 14.9301 6.6268 14.7859 6.44197 14.632L4.09101 15.6256L2.16797 12.2923L4.20161 10.7554C4.18238 10.6315 4.16875 10.507 4.16074 10.382C4.15273 10.257 4.14872 10.1326 4.14872 10.0087C4.14872 9.89006 4.15273 9.76959 4.16074 9.64726C4.16875 9.52492 4.18238 9.39111 4.20161 9.24582L2.16797 7.70896L4.09101 4.39169L6.43395 5.37728C6.63481 5.21808 6.84929 5.07251 7.07739 4.94057C7.3055 4.80861 7.52959 4.70257 7.74968 4.62244L8.07501 2.08398H11.9211L12.2384 4.63046C12.4884 4.72127 12.7146 4.8273 12.9171 4.94857C13.1196 5.06983 13.3239 5.21273 13.5301 5.37728L15.9051 4.39169L17.8281 7.70896L15.7624 9.26984C15.7924 9.40446 15.8087 9.53027 15.8113 9.64726C15.814 9.76424 15.8153 9.88203 15.8153 10.0006C15.8153 10.1139 15.8127 10.229 15.8073 10.346C15.802 10.463 15.7827 10.5968 15.7496 10.7474L17.7993 12.2923L15.8762 15.6256L13.5301 14.624C13.3239 14.7885 13.1134 14.9341 12.8987 15.0607C12.6839 15.1873 12.4638 15.2907 12.2384 15.3708L11.9211 17.9173H8.07501ZM9.16472 16.6673H10.8025L11.1022 14.4349C11.5274 14.3238 11.916 14.166 12.2681 13.9614C12.6201 13.7568 12.9596 13.4937 13.2865 13.1721L15.357 14.0423L16.1775 12.6256L14.3698 11.2634C14.4393 11.0476 14.4866 10.8361 14.5117 10.6288C14.5368 10.4216 14.5493 10.2122 14.5493 10.0006C14.5493 9.78376 14.5368 9.57435 14.5117 9.37242C14.4866 9.17051 14.4393 8.96431 14.3698 8.75384L16.1936 7.37563L15.3731 5.95896L13.2785 6.84199C12.9997 6.5439 12.6655 6.28055 12.2761 6.05192C11.8867 5.82328 11.4927 5.66142 11.0942 5.56634L10.8314 3.33396H9.17753L8.90191 5.55832C8.47668 5.65875 8.08405 5.8126 7.72401 6.01986C7.36397 6.22712 7.02049 6.49422 6.69357 6.82115L4.62305 5.95896L3.80253 7.37563L5.60222 8.71699C5.53277 8.91462 5.48416 9.12028 5.45639 9.33396C5.42861 9.54765 5.41472 9.77254 5.41472 10.0087C5.41472 10.2255 5.42861 10.4381 5.45639 10.6465C5.48416 10.8548 5.5301 11.0605 5.5942 11.2634L3.80253 12.6256L4.62305 14.0423L6.68555 13.1673C7.00179 13.4921 7.33993 13.7581 7.69997 13.9654C8.06001 14.1726 8.45798 14.3318 8.89389 14.4429L9.16472 16.6673ZM10.0077 12.5006C10.701 12.5006 11.291 12.2573 11.7777 11.7707C12.2643 11.284 12.5076 10.694 12.5076 10.0006C12.5076 9.30727 12.2643 8.71726 11.7777 8.23061C11.291 7.74397 10.701 7.50065 10.0077 7.50065C9.30575 7.50065 8.71361 7.74397 8.23124 8.23061C7.74888 8.71726 7.5077 9.30727 7.5077 10.0006C7.5077 10.694 7.74888 11.284 8.23124 11.7707C8.71361 12.2573 9.30575 12.5006 10.0077 12.5006Z" fill="#494949"/>
</g>
</svg>
