<svg width="20" height="20" viewBox="0 0 20 20" fill="none" xmlns="http://www.w3.org/2000/svg">
<mask id="mask0_1421_26262" style="mask-type:alpha" maskUnits="userSpaceOnUse" x="0" y="0" width="20" height="20">
<rect width="20" height="20" fill="#D9D9D9"/>
</mask>
<g mask="url(#mask0_1421_26262)">
<path d="M9.99617 17.9173C8.90122 17.9173 7.87203 17.7095 6.90858 17.2939C5.94513 16.8784 5.10706 16.3144 4.39438 15.6021C3.68168 14.8897 3.11747 14.052 2.70173 13.089C2.28599 12.126 2.07812 11.097 2.07812 10.002C2.07812 8.90708 2.2859 7.87789 2.70146 6.91444C3.11701 5.95098 3.68097 5.11292 4.39333 4.40024C5.10571 3.68754 5.94341 3.12333 6.90644 2.70759C7.86945 2.29185 8.89843 2.08398 9.99338 2.08398C11.0883 2.08398 12.1175 2.29176 13.081 2.70732C14.0444 3.12287 14.8825 3.68683 15.5952 4.39919C16.3079 5.11157 16.8721 5.94927 17.2878 6.9123C17.7036 7.87531 17.9114 8.90429 17.9114 9.99924C17.9114 11.0942 17.7036 12.1234 17.2881 13.0868C16.8725 14.0503 16.3086 14.8883 15.5962 15.601C14.8838 16.3137 14.0461 16.8779 13.0831 17.2937C12.1201 17.7094 11.0911 17.9173 9.99617 17.9173ZM7.5781 16.209L8.80248 13.4205C8.28233 13.2368 7.83338 12.9521 7.45565 12.5664C7.07791 12.1807 6.78968 11.7282 6.59096 11.2089L3.77042 12.3756C4.09519 13.2645 4.59092 14.0423 5.25758 14.709C5.92425 15.3756 6.69776 15.8756 7.5781 16.209ZM6.59096 8.79232C6.77899 8.27308 7.06344 7.8241 7.44431 7.44538C7.82519 7.06665 8.27257 6.78379 8.78646 6.59682L7.61977 3.77628C6.72553 4.11494 5.94508 4.61761 5.27842 5.28428C4.61175 5.95094 4.10908 6.7314 3.77042 7.62563L6.59096 8.79232ZM9.99288 12.3724C10.6512 12.3724 11.2114 12.142 11.6735 11.6812C12.1355 11.2204 12.3666 10.6608 12.3666 10.0025C12.3666 9.34422 12.1362 8.78403 11.6753 8.32194C11.2145 7.85987 10.655 7.62884 9.99667 7.62884C9.33836 7.62884 8.77817 7.85925 8.31608 8.32007C7.85401 8.78088 7.62298 9.34043 7.62298 9.99874C7.62298 10.657 7.85339 11.2172 8.31421 11.6793C8.77503 12.1414 9.33458 12.3724 9.99288 12.3724ZM12.4114 16.209C13.2864 15.8756 14.0538 15.3791 14.7135 14.7194C15.3732 14.0597 15.8698 13.2923 16.2031 12.4173L13.4146 11.1929C13.2383 11.7068 12.959 12.1529 12.5765 12.531C12.194 12.9093 11.7501 13.2004 11.2448 13.4044L12.4114 16.209ZM13.3986 8.75065L16.2031 7.58396C15.8698 6.70896 15.3732 5.9416 14.7135 5.28188C14.0538 4.62216 13.2864 4.12563 12.4114 3.7923L11.2448 6.62247C11.7394 6.81477 12.171 7.09468 12.5396 7.46219C12.9082 7.82971 13.1945 8.25919 13.3986 8.75065Z" fill="#494949"/>
</g>
</svg>
