<svg width="24" height="24" viewBox="0 0 24 24" fill="none" xmlns="http://www.w3.org/2000/svg">
<path id="Vector" d="M6.90732 19.3171L9.13171 8.66341L7.02439 9.48293V12.2927H4.68293V7.96097L10.5951 5.47317C10.8683 5.3561 11.1563 5.28312 11.4591 5.25424C11.762 5.22537 12.0496 5.25932 12.3219 5.3561C12.5951 5.45366 12.8539 5.59024 13.0981 5.76585C13.3424 5.94146 13.5422 6.16585 13.6976 6.43902L14.8683 8.31219C15.4146 9.19024 16.1319 9.87824 17.0201 10.3762C17.9083 10.8741 18.8691 11.1227 19.9024 11.122V13.4634C18.5366 13.4634 17.3124 13.1902 16.2299 12.6439C15.1473 12.0976 14.2252 11.3951 13.4634 10.5366L12.761 12.2927L15.2195 14.6341V19.3171H12.878V15.7463L10.5951 13.639L9.36585 19.3171H6.90732ZM13.4634 4.68293C12.8195 4.68293 12.2685 4.45385 11.8103 3.99571C11.3522 3.53756 11.1227 2.98615 11.122 2.34146C11.122 1.69756 11.3514 1.14654 11.8103 0.68839C12.2693 0.230244 12.8203 0.000780488 13.4634 0C14.1073 0 14.6587 0.229463 15.1177 0.68839C15.5766 1.14732 15.8057 1.69834 15.8049 2.34146C15.8049 2.98537 15.5758 3.53678 15.1177 3.99571C14.6595 4.45463 14.1081 4.68371 13.4634 4.68293ZM11.7073 24C10.0878 24 8.56585 23.6925 7.14146 23.0775C5.71707 22.4624 4.47805 21.6285 3.42439 20.5756C2.37073 19.5219 1.53678 18.2829 0.922537 16.8585C0.308293 15.4341 0.000780488 13.9122 0 12.2927C0 9.97073 0.600195 7.88293 1.80059 6.02927C3.00098 4.17561 4.56663 2.77073 6.49756 1.81463L7.55122 3.89268C6.00976 4.65366 4.75629 5.78068 3.79083 7.27376C2.82537 8.76683 2.34224 10.4398 2.34146 12.2927C2.34146 14.9073 3.24878 17.1219 5.06341 18.9366C6.87805 20.7512 9.09268 21.6585 11.7073 21.6585C14.322 21.6585 16.5366 20.7512 18.3512 18.9366C20.1659 17.1219 21.0732 14.9073 21.0732 12.2927H23.4146C23.4146 13.9122 23.1071 15.4341 22.4921 16.8585C21.8771 18.2829 21.0431 19.5219 19.9902 20.5756C18.9366 21.6293 17.6976 22.4636 16.2732 23.0786C14.8488 23.6937 13.3268 24.0008 11.7073 24Z" fill="#5735DE"/>
</svg>
